<svg width="307" height="204" viewBox="0 0 307 204" fill="none" xmlns="http://www.w3.org/2000/svg">
<path d="M28 102H278V153C278 164.046 269.046 173 258 173H48C36.9543 173 28 164.046 28 153V102Z" fill="#6167DE"/>
<path d="M278 70L28 70V51C28 39.9543 36.9543 31 48 31L258 31C269.046 31 278 39.9543 278 51V70Z" fill="#6167DE"/>
<path d="M278 95L28 95V77L278 77V95Z" fill="#6167DE"/>
<rect x="6" y="98" width="294" height="8" rx="3" fill="#68D9A3" fill-opacity="0.8"/>
<path d="M299.064 56.0122C297.193 57.9638 293.898 56.6397 293.898 53.9362L293.898 16C293.898 14.3431 292.555 13 290.898 13L252.209 13C250.552 13 249.209 11.6568 249.209 9.99997L249.209 3.98516C249.209 2.32833 250.552 0.985191 252.209 0.985156L302.936 0.98408C304.594 0.984045 305.938 2.32871 305.936 3.98656L305.9 47.6768C305.9 48.4496 305.601 49.1923 305.066 49.7502L299.064 56.0122Z" fill="black"/>
<path d="M7.82986 147.299C9.73421 145.38 13.0057 146.761 12.9588 149.464L12.2998 187.395C12.2711 189.051 13.5907 190.417 15.2473 190.446L53.9309 191.118C55.5875 191.147 56.9071 192.513 56.8783 194.17L56.7739 200.184C56.7451 201.84 55.3788 203.16 53.7223 203.131L3.00208 202.251C1.34448 202.222 0.0244577 200.855 0.0546206 199.197L0.849521 155.514C0.863581 154.741 1.17528 154.004 1.71967 153.455L7.82986 147.299Z" fill="black"/>
<rect x="43" y="150" width="93" height="5" rx="2.5" fill="white"/>
<rect x="43" y="135" width="63" height="5" rx="2.5" fill="white"/>
<path d="M222.098 145.547H218.987C218.93 145.144 218.814 144.787 218.639 144.474C218.464 144.157 218.239 143.887 217.964 143.665C217.69 143.442 217.373 143.272 217.013 143.153C216.658 143.035 216.272 142.976 215.855 142.976C215.102 142.976 214.446 143.163 213.888 143.537C213.329 143.906 212.896 144.446 212.588 145.156C212.28 145.862 212.126 146.719 212.126 147.727C212.126 148.764 212.28 149.635 212.588 150.341C212.901 151.046 213.336 151.579 213.895 151.939C214.454 152.299 215.1 152.479 215.834 152.479C216.246 152.479 216.627 152.424 216.977 152.315C217.332 152.206 217.647 152.048 217.922 151.839C218.196 151.626 218.424 151.368 218.604 151.065C218.788 150.762 218.916 150.417 218.987 150.028L222.098 150.043C222.018 150.71 221.816 151.354 221.494 151.974C221.177 152.59 220.749 153.142 220.209 153.629C219.674 154.112 219.035 154.496 218.291 154.78C217.553 155.059 216.717 155.199 215.784 155.199C214.487 155.199 213.327 154.905 212.304 154.318C211.286 153.731 210.481 152.881 209.889 151.768C209.302 150.656 209.009 149.309 209.009 147.727C209.009 146.141 209.307 144.792 209.903 143.679C210.5 142.566 211.31 141.719 212.332 141.136C213.355 140.549 214.506 140.256 215.784 140.256C216.627 140.256 217.408 140.374 218.128 140.611C218.852 140.848 219.494 141.193 220.053 141.648C220.611 142.098 221.066 142.649 221.416 143.303C221.771 143.956 221.999 144.704 222.098 145.547ZM226.537 155H223.241L228.263 140.455H232.226L237.24 155H233.945L230.301 143.778H230.188L226.537 155ZM226.331 149.283H234.115V151.683H226.331V149.283ZM238.991 155V140.455H244.729C245.828 140.455 246.765 140.651 247.542 141.044C248.323 141.432 248.917 141.984 249.325 142.699C249.737 143.409 249.942 144.245 249.942 145.206C249.942 146.172 249.734 147.003 249.317 147.699C248.901 148.39 248.297 148.92 247.506 149.29C246.72 149.659 245.769 149.844 244.651 149.844H240.809V147.372H244.154C244.741 147.372 245.229 147.292 245.617 147.131C246.005 146.97 246.294 146.728 246.484 146.406C246.678 146.084 246.775 145.684 246.775 145.206C246.775 144.723 246.678 144.316 246.484 143.984C246.294 143.653 246.003 143.402 245.61 143.232C245.222 143.056 244.732 142.969 244.14 142.969H242.066V155H238.991ZM246.846 148.381L250.461 155H247.066L243.529 148.381H246.846ZM257.272 155H252.116V140.455H257.315C258.778 140.455 260.037 140.746 261.093 141.328C262.149 141.906 262.961 142.737 263.529 143.821C264.102 144.905 264.388 146.203 264.388 147.713C264.388 149.228 264.102 150.53 263.529 151.619C262.961 152.708 262.144 153.544 261.079 154.126C260.018 154.709 258.749 155 257.272 155ZM255.191 152.365H257.144C258.053 152.365 258.818 152.204 259.438 151.882C260.063 151.555 260.532 151.051 260.844 150.369C261.162 149.683 261.32 148.797 261.32 147.713C261.32 146.638 261.162 145.76 260.844 145.078C260.532 144.396 260.066 143.894 259.445 143.572C258.825 143.25 258.06 143.089 257.151 143.089H255.191V152.365Z" fill="white"/>
</svg>
