<svg width="62" height="56" viewBox="0 0 62 56" fill="none" xmlns="http://www.w3.org/2000/svg">
<path d="M33.4613 13.0208L27.9613 2.02075C27.7328 1.56361 27.3815 1.17916 26.9468 0.910546C26.512 0.641927 26.011 0.499762 25.5 0.5H3.5C2.77065 0.5 2.07118 0.789732 1.55546 1.30546C1.03973 1.82118 0.75 2.52065 0.75 3.25V14.25C0.75 14.9793 1.03973 15.6788 1.55546 16.1945C2.07118 16.7103 2.77065 17 3.5 17H31C31.4686 16.9998 31.9293 16.8798 32.3385 16.6515C32.7477 16.4231 33.0918 16.094 33.338 15.6954C33.5843 15.2968 33.7247 14.8418 33.7457 14.3737C33.7668 13.9056 33.668 13.4399 33.4585 13.0208H33.4613Z" fill="#6167DE"/>
<path d="M58.5 11.5H0.75V52.75C0.75 53.4793 1.03973 54.1788 1.55546 54.6945C2.07118 55.2103 2.77065 55.5 3.5 55.5H58.5C59.2293 55.5 59.9288 55.2103 60.4445 54.6945C60.9603 54.1788 61.25 53.4793 61.25 52.75V14.25C61.25 13.5207 60.9603 12.8212 60.4445 12.3055C59.9288 11.7897 59.2293 11.5 58.5 11.5Z" fill="#4294FF"/>
</svg>
