<svg width="20" height="21" viewBox="0 0 20 21" fill="none" xmlns="http://www.w3.org/2000/svg">
<path d="M16.4395 8.05067L15.7036 8.78664L16.8968 9.97987H10.5207V3.60362L11.7139 4.79688L12.4499 4.06091L10.0003 1.61133L7.55067 4.06091L8.28664 4.79688L9.47987 3.60362V9.97987H3.10362L4.29688 8.78664L3.56091 8.05067L1.11133 10.5003L3.56091 12.9499L4.29688 12.2139L3.10362 11.0207H9.47987V17.3968L8.28664 16.2036L7.55067 16.9395L10.0003 19.3891L12.4499 16.9395L11.7139 16.2036L10.5207 17.3968V11.0207H16.8968L15.7036 12.2139L16.4395 12.9499L18.8891 10.5003L16.4395 8.05067Z" fill="#707070"/>
</svg>
