<svg width="303" height="303" viewBox="0 0 303 303" fill="none" xmlns="http://www.w3.org/2000/svg">
<path d="M151.5 270.573C220.107 270.573 275.724 266.525 275.724 261.531C275.724 256.538 220.107 252.49 151.5 252.49C82.8928 252.49 27.2759 256.538 27.2759 261.531C27.2759 266.525 82.8928 270.573 151.5 270.573Z" fill="#EBEBEB"/>
<path d="M183.933 262.022C185.145 262.453 220.05 263.065 221.396 262.247C221.911 261.944 222.299 256.859 222.608 250.733C222.608 250.666 222.608 250.599 222.608 250.539C222.668 249.272 223.474 227.268 223.474 227.268L200.804 226.953L200.089 249.89V250.278C200.089 250.278 186.623 256.023 185.242 257.077C183.86 258.132 182.721 261.592 183.933 262.022Z" fill="#EB9481"/>
<path d="M221.396 262.241C220.051 263.065 185.145 262.453 183.933 262.016C182.721 261.58 183.86 258.102 185.23 257.053C185.975 256.484 190.217 254.55 193.981 252.896C189.314 255.605 186.103 258.804 203.961 257.041C214.476 256.005 219.784 255.072 222.384 254.472C222.123 258.817 221.796 262.004 221.396 262.241Z" fill="#263238"/>
<path d="M230.619 123.37C230.619 123.37 224.929 182.497 224.075 187C223.881 188.024 223.547 244.83 223.547 244.83L199.713 244.467C199.713 244.467 202.034 195.605 203.125 186.612C204.216 177.619 209.318 123.37 209.318 123.37H230.619Z" fill="#263238"/>
<path d="M222.814 239.867C222.101 239.769 221.382 239.717 220.662 239.71C219.947 239.673 219.226 239.637 218.511 239.613C217.099 239.558 215.687 239.491 214.269 239.443C211.397 239.346 208.524 239.245 205.652 239.14C204.04 239.085 202.422 239.079 200.804 239.098C200.791 239.098 200.779 239.103 200.77 239.112C200.76 239.121 200.755 239.133 200.755 239.146C200.755 239.159 200.76 239.171 200.77 239.18C200.779 239.189 200.791 239.195 200.804 239.195C206.518 239.801 212.288 239.891 218.026 240.031L220.487 240.073C221.264 240.11 222.044 240.098 222.82 240.037C222.935 240.025 222.899 239.879 222.814 239.867Z" fill="#37474F"/>
<path d="M227.407 125.975C225.668 140.392 223.929 154.815 222.487 169.262C221.778 176.431 221.105 183.606 220.669 190.799C220.232 197.992 220.063 205.301 219.942 212.555C219.826 220.76 219.632 228.971 219.766 237.176C219.766 237.255 219.881 237.249 219.887 237.176C220.596 222.675 220.396 208.143 221.166 193.641C221.935 179.14 223.505 164.693 225.105 150.252C225.995 142.168 226.832 134.09 227.668 126.012C227.674 125.86 227.42 125.83 227.407 125.975Z" fill="#37474F"/>
<path d="M233.728 261.901C235.013 261.998 268.876 253.417 269.93 252.272C270.349 251.841 269.385 246.818 268.052 240.83L268.003 240.636C267.737 239.424 260.604 218.566 260.604 218.566L238.649 224.22L246.109 245.933L246.212 246.303C246.212 246.303 234.698 255.393 233.673 256.762C232.649 258.132 232.443 261.792 233.728 261.901Z" fill="#EB9481"/>
<path d="M269.931 252.272C268.852 253.417 235.013 262.004 233.728 261.901C232.444 261.798 232.631 258.144 233.674 256.768C234.243 256.023 237.831 253.048 241.025 250.46C237.237 254.302 234.965 258.235 251.745 251.836C261.616 248.072 266.495 245.776 268.846 244.515C269.737 248.775 270.276 251.939 269.931 252.272Z" fill="#263238"/>
<path d="M244 244.218L268.137 238.401C268.137 238.401 250.066 191.381 249.066 188.224C248.321 185.933 242.333 157.96 240.23 145.743C240.23 145.743 243.37 136.823 236.328 123.352H209.318C209.318 123.352 209.924 136.168 213.191 144.301C215.369 145.062 217.472 146.022 219.475 147.167C219.475 147.167 227.201 190.89 228.462 194.902C231.225 203.531 244 244.218 244 244.218Z" fill="#263238"/>
<path d="M223.766 170.583C222.796 165.428 221.83 160.273 220.869 155.118C220.596 153.663 220.263 152.215 219.99 150.767C219.718 149.318 219.427 147.852 219.015 146.446C218.984 146.355 218.839 146.373 218.845 146.446C218.924 147.761 219.166 149.076 219.342 150.379C219.518 151.682 219.705 152.924 219.918 154.184C220.366 156.782 220.841 159.374 221.342 161.959C222.323 167.129 223.305 172.316 224.505 177.437C225.178 180.315 225.808 183.212 226.529 186.084C226.529 186.145 226.632 186.115 226.62 186.084C225.717 180.909 224.741 175.74 223.766 170.583Z" fill="#37474F"/>
<path d="M218.081 140.738C218.445 139.835 218.154 138.798 217.99 137.883C217.784 136.728 217.582 135.568 217.384 134.405C216.899 131.791 216.374 129.187 215.809 126.593H215.76C216.015 128.672 216.299 130.745 216.596 132.817C216.893 134.89 217.305 136.974 217.56 139.065C217.645 139.744 217.56 141.071 216.608 141.077C215.778 141.077 215.281 139.865 215.015 139.259C214.318 137.408 213.813 135.491 213.506 133.538C213.027 131.235 212.633 128.92 212.233 126.606C212.233 126.527 212.094 126.551 212.1 126.606C212.253 128.9 212.522 131.186 212.906 133.453C213.263 135.617 213.597 137.889 214.506 139.895C214.851 140.653 215.33 141.58 216.196 141.816C216.319 141.85 216.445 141.866 216.572 141.865C216.651 142.556 216.754 143.234 216.899 143.919C217.03 144.632 217.212 145.335 217.445 146.022C217.449 146.043 217.461 146.061 217.479 146.073C217.496 146.085 217.518 146.089 217.539 146.085C217.56 146.081 217.578 146.069 217.59 146.052C217.602 146.034 217.606 146.012 217.602 145.992C217.549 145.282 217.443 144.577 217.287 143.883C217.152 143.198 216.982 142.52 216.778 141.853C217.072 141.791 217.345 141.657 217.573 141.462C217.8 141.267 217.975 141.018 218.081 140.738Z" fill="#37474F"/>
<path d="M222.608 147.482C221.232 146.862 219.796 146.385 218.323 146.058C216.904 145.751 215.464 145.549 214.015 145.452C213.96 145.452 213.948 145.543 214.015 145.549C215.457 145.773 221.166 147.173 222.59 147.531C222.62 147.555 222.644 147.5 222.608 147.482Z" fill="#37474F"/>
<path d="M257.81 221.293C256.522 217.855 255.229 214.421 253.932 210.991C251.369 204.192 248.72 197.417 246.169 190.612C243.618 183.806 242.533 176.74 241.188 169.711C240.485 166.127 239.782 162.544 239.079 158.96C238.376 155.415 237.528 151.858 237.115 148.258C236.703 144.659 237.237 141.217 236.928 137.696C236.646 134.554 235.805 131.487 234.443 128.642C234.099 127.92 233.719 127.216 233.304 126.533C233.255 126.454 233.14 126.533 233.183 126.612C234.766 129.553 235.822 132.748 236.303 136.053C236.529 137.693 236.617 139.35 236.564 141.004C236.516 142.78 236.388 144.556 236.473 146.337C236.643 149.888 237.473 153.385 238.152 156.863C238.83 160.342 239.546 163.96 240.249 167.505C240.951 171.05 241.66 174.668 242.363 178.249C242.974 181.748 243.812 185.204 244.872 188.594C246.005 191.975 247.333 195.302 248.599 198.635C249.896 202.065 251.197 205.499 252.502 208.937C255.114 215.755 257.671 222.596 260.38 229.365C260.695 230.159 261.016 230.941 261.362 231.717C261.41 231.82 261.574 231.717 261.537 231.638C260.453 228.135 259.101 224.717 257.81 221.293Z" fill="#37474F"/>
<path d="M265.367 233.359C264.657 233.476 263.955 233.636 263.265 233.837L261.174 234.365C259.81 234.722 258.441 235.074 257.077 235.437L248.751 237.649C247.187 238.061 245.636 238.528 244.097 239.013C244.084 239.013 244.072 239.018 244.063 239.027C244.053 239.036 244.048 239.048 244.048 239.061C244.048 239.074 244.053 239.086 244.063 239.095C244.072 239.104 244.084 239.11 244.097 239.11C249.727 238.001 255.284 236.443 260.816 234.91L263.186 234.231C263.942 234.044 264.685 233.807 265.41 233.522C265.531 233.48 265.428 233.353 265.367 233.359Z" fill="#37474F"/>
<path d="M219.445 88.9791C221.996 93.1302 225.753 97.6812 226.177 102.711C226.505 106.656 224.711 110.425 222.384 113.492C217.269 120.243 208.004 125.878 199.538 121.782C196.156 120.146 192.732 114.728 194.744 110.941C195.781 109.001 197.562 107.692 199.114 106.189C200.103 105.294 200.879 104.188 201.383 102.952C201.886 101.716 202.105 100.383 202.022 99.0508C201.786 93.4817 199.598 90.5244 197.386 85.5734C197.133 85.0987 196.983 84.5762 196.944 84.0397C196.906 83.5032 196.98 82.9645 197.162 82.4585C197.519 81.269 198.188 80.1973 199.101 79.3558C199.788 78.4659 200.683 77.7583 201.707 77.2954C203.919 76.3561 206.998 77.1742 209.276 77.4772C210.309 77.5495 211.308 77.8748 212.185 78.4243C213.062 78.9739 213.79 79.7308 214.306 80.6284C216.057 83.3857 217.736 86.1975 219.445 88.9791Z" fill="#263238"/>
<path d="M221.081 90.6942C218.499 87.0582 215.851 83.4222 213.203 79.8286C213.203 79.8286 213.148 79.8286 213.166 79.8286C215.239 82.8586 217.269 85.9371 219.39 88.9489C221.511 91.9607 223.796 94.7968 225.601 97.9177C229.656 104.935 223.965 111.856 217.723 114.843C217.439 114.977 217.687 115.413 217.972 115.268C223.347 112.468 228.674 107.159 227.062 100.511C226.262 96.8936 223.19 93.6818 221.081 90.6942Z" fill="#263238"/>
<path d="M197.519 85.0096C197.477 84.9369 197.368 85.0096 197.404 85.0823C199.386 89.0759 202.064 93.5663 201.725 98.1719C201.565 100.446 200.72 102.618 199.301 104.402C198.168 105.808 196.641 106.723 195.277 107.868C189.944 112.358 194.362 120.467 200.452 121.2C200.58 121.2 200.61 121 200.483 120.976C196.071 120.23 192.605 116.358 193.308 111.722C193.865 108.001 198.156 106.698 200.119 103.777C204.137 97.7356 200.774 90.6091 197.519 85.0096Z" fill="#263238"/>
<path d="M211.942 102.832C209.797 110.183 206.022 122.466 200.362 125.515C195.81 127.939 182.272 132.247 178.315 132.417C174.982 132.556 173.813 118.691 176.497 118.109C179.824 117.388 192.72 114.879 193.908 114.273C194.992 113.716 199.968 107.813 207.003 100.584C210.888 96.5842 213.015 99.1657 211.942 102.832Z" fill="#EB9481"/>
<path d="M182.279 130.951C180.873 131.957 174.025 136.017 171.868 136.72C169.71 137.423 163.347 138.992 162.638 137.398C161.929 135.805 163.759 135.187 163.759 135.187C163.759 135.187 160.972 135.429 160.408 133.75C159.845 132.072 162.711 131.223 162.711 131.223C162.711 131.223 159.826 131.26 159.384 129.551C158.942 127.842 161.972 127.466 161.972 127.466C161.972 127.466 159.335 127.624 159.548 126.06C159.82 124.182 164.711 124.442 167.032 123.485C167.565 123.273 177.425 118.328 177.425 118.328L182.279 130.951Z" fill="#EB9481"/>
<path d="M161.711 127.502C165.311 127.684 166.916 127.145 170.001 125.406C170.062 125.375 170.128 125.454 170.068 125.497C167.195 127.472 165.28 128.442 161.693 127.678C161.517 127.642 161.541 127.496 161.711 127.502Z" fill="#263238"/>
<path d="M162.408 131.205C166.159 131.072 167.905 130.496 171.274 128.915C171.322 128.915 171.365 128.975 171.322 128.999C168.147 130.817 166.214 131.751 162.444 131.393C162.293 131.375 162.257 131.211 162.408 131.205Z" fill="#263238"/>
<path d="M163.929 135.102C167.565 134.708 169.492 134.162 172.571 132.211C172.585 132.201 172.603 132.196 172.621 132.199C172.638 132.202 172.654 132.212 172.665 132.226C172.675 132.241 172.679 132.259 172.677 132.276C172.674 132.294 172.664 132.31 172.649 132.32C169.704 134.617 167.286 135.314 163.953 135.211C163.723 135.205 163.699 135.138 163.929 135.102Z" fill="#263238"/>
<path d="M180.012 118.503C180.012 118.503 175.77 117.049 173.728 116.819C171.686 116.588 163.88 118.521 164.202 120.236C164.614 122.448 169.353 122.23 171.661 121.818C171.661 121.818 172.607 126.939 176.043 127.514C179.479 128.09 180.012 118.503 180.012 118.503Z" fill="#EB9481"/>
<path d="M164.517 120.806C166.335 122.551 169.365 121.818 171.607 121.588C171.64 121.584 171.674 121.587 171.705 121.598C171.737 121.609 171.765 121.628 171.788 121.652C171.811 121.676 171.828 121.706 171.838 121.738C171.847 121.77 171.849 121.803 171.843 121.836C172.383 123.957 173.764 126.787 175.928 127.593C175.939 127.599 175.948 127.609 175.953 127.62C175.958 127.632 175.959 127.645 175.956 127.658C175.952 127.67 175.944 127.68 175.934 127.688C175.923 127.695 175.91 127.698 175.897 127.696C173.473 127.145 171.88 124.472 171.431 122.115C169.11 122.388 166.08 122.994 164.499 120.824L164.517 120.806Z" fill="#263238"/>
<path d="M207.991 116.746L197.623 108.753C197.623 108.753 203.361 101.632 207.894 98.4934C212.427 95.3543 213.724 98.4207 212.445 103.638C211.167 108.856 207.991 116.746 207.991 116.746Z" fill="#6167DE"/>
<path opacity="0.1" d="M211.706 97.3905L212.5 98.1783C212.67 98.5173 212.785 98.8815 212.839 99.2569L210.803 97.239C211.112 97.2073 211.424 97.2597 211.706 97.3905ZM209.094 97.7722L212.839 101.493C212.839 101.257 212.882 101.033 212.894 100.808L209.597 97.5359C209.439 97.6026 209.27 97.6813 209.07 97.7722H209.094ZM207.706 98.6328L212.5 103.39C212.548 103.184 212.591 102.978 212.633 102.784L208.149 98.3298L207.894 98.4994L207.706 98.6328ZM206.44 99.6024L212.039 105.159C212.094 104.965 212.142 104.772 212.197 104.553L206.852 99.2509C206.712 99.3842 206.573 99.4872 206.44 99.6024ZM205.228 100.633L211.518 106.88C211.579 106.693 211.633 106.499 211.694 106.274L205.634 100.251L205.228 100.633ZM204.064 101.705L210.979 108.571L211.16 108.014L204.446 101.348L204.064 101.705ZM202.931 102.82L210.409 110.244C210.476 110.062 210.542 109.868 210.603 109.686L203.331 102.445L202.931 102.82ZM202.198 103.578C202.068 103.707 201.947 103.834 201.834 103.96L209.827 111.892L210.021 111.347L202.198 103.578ZM201.113 104.729L200.755 105.117L209.239 113.528C209.312 113.352 209.379 113.171 209.445 112.983L201.113 104.729ZM200.046 105.899L199.701 106.299L208.621 115.14C208.682 114.971 208.755 114.795 208.821 114.601L200.046 105.899ZM199.004 107.111L198.665 107.517L207.949 116.74H207.985L208.197 116.213L199.004 107.111ZM197.98 108.323C197.804 108.529 197.695 108.674 197.641 108.729L197.889 108.977L201.264 111.577L197.98 108.323Z" fill="black"/>
<path d="M199.592 107.293C202.659 109.386 205.582 111.682 208.343 114.165C208.343 114.165 208.306 114.25 208.288 114.237C205.791 112.504 201.083 108.686 199.513 107.402C199.483 107.377 199.562 107.262 199.592 107.293Z" fill="#263238"/>
<path opacity="0.1" d="M212.445 103.626C211.167 108.844 207.991 116.734 207.991 116.734L201.034 111.365L212.185 97.7236C213.075 98.6811 213.13 100.851 212.445 103.626Z" fill="black"/>
<path d="M208.313 130.981L238.11 124.987C238.11 124.987 225.014 102.511 217.427 97.3719C213.973 95.0388 211.367 96.1115 209.494 98.5415C209.028 99.1475 203.961 109.807 204.077 113.086C204.18 115.988 207.143 118.54 207.143 118.54L208.313 130.981Z" fill="#6167DE"/>
<path d="M211.13 116.401C212.421 116.265 213.721 116.245 215.015 116.34C215.663 116.395 216.306 116.485 216.954 116.601L217.918 116.734C218.251 116.782 218.59 116.782 218.924 116.734C218.954 116.734 218.966 116.782 218.924 116.788C218.62 116.874 218.31 116.933 217.996 116.964C217.688 116.991 217.378 116.991 217.069 116.964C216.415 116.91 215.76 116.825 215.1 116.764C213.773 116.649 212.451 116.528 211.13 116.522C211.082 116.528 211.07 116.407 211.13 116.401Z" fill="#263238"/>
<path d="M208.324 118.418C209.329 118.067 210.355 117.782 211.397 117.564C211.918 117.461 212.445 117.394 212.972 117.34L213.736 117.285C214.015 117.285 214.3 117.285 214.578 117.285C214.609 117.285 214.621 117.34 214.578 117.34C214.318 117.34 214.063 117.455 213.803 117.503L213.021 117.643L211.457 117.934C210.409 118.115 209.373 118.309 208.336 118.54C208.294 118.534 208.276 118.437 208.324 118.418Z" fill="#263238"/>
<path d="M233.716 137.114L214.948 152.112L195.362 127.599L209.512 116.292L217.821 117.219L233.716 137.114Z" fill="#455A64"/>
<path d="M217.82 117.219L213.197 120.909L209.512 116.292L217.82 117.219Z" fill="#263238"/>
<path d="M206.604 132.768C206.826 133.053 207.129 133.265 207.473 133.377C207.817 133.489 208.187 133.496 208.534 133.396C208.882 133.297 209.192 133.096 209.426 132.82C209.659 132.543 209.804 132.203 209.843 131.844C209.882 131.484 209.812 131.121 209.644 130.801C209.475 130.481 209.215 130.218 208.897 130.047C208.578 129.876 208.216 129.803 207.856 129.839C207.496 129.875 207.155 130.017 206.876 130.247C206.511 130.549 206.279 130.982 206.228 131.453C206.177 131.923 206.312 132.395 206.604 132.768Z" fill="white"/>
<path d="M213.73 137.259L223.22 129.678L213.845 127.672L213.73 137.259Z" fill="white"/>
<path d="M210.009 140.234L217.845 133.968L210.912 133.332L210.009 140.234Z" fill="#EBEBEB"/>
<path d="M209.912 141.083L201.75 130.896L215.906 119.582L224.075 129.799L209.912 141.083ZM203.452 131.06L210.118 139.38L222.402 129.581L215.736 121.255L203.452 131.06Z" fill="white"/>
<path d="M218.16 143.507L216.457 141.38C216.436 141.354 216.42 141.324 216.41 141.292C216.401 141.26 216.398 141.226 216.402 141.192C216.406 141.159 216.416 141.126 216.433 141.097C216.45 141.068 216.473 141.043 216.5 141.023L217.669 140.089C217.695 140.069 217.725 140.053 217.758 140.044C217.79 140.035 217.823 140.033 217.857 140.036C217.89 140.04 217.922 140.051 217.951 140.067C217.98 140.084 218.006 140.105 218.027 140.132C218.069 140.184 218.089 140.251 218.082 140.318C218.076 140.385 218.042 140.447 217.99 140.489L217.015 141.271L217.542 141.932L218.378 141.259C218.404 141.238 218.434 141.223 218.467 141.214C218.499 141.205 218.532 141.202 218.566 141.206C218.599 141.21 218.631 141.22 218.66 141.237C218.689 141.253 218.715 141.275 218.736 141.301C218.778 141.354 218.798 141.421 218.791 141.488C218.785 141.555 218.751 141.616 218.699 141.659L217.857 142.332L218.39 142.992L219.366 142.21C219.42 142.171 219.488 142.154 219.554 142.163C219.621 142.172 219.682 142.206 219.723 142.259C219.744 142.284 219.76 142.313 219.769 142.345C219.779 142.376 219.782 142.409 219.779 142.442C219.775 142.475 219.765 142.507 219.75 142.535C219.734 142.564 219.713 142.59 219.687 142.61L218.518 143.544C218.492 143.566 218.463 143.583 218.431 143.594C218.398 143.604 218.364 143.608 218.331 143.605C218.297 143.601 218.264 143.591 218.235 143.574C218.206 143.557 218.18 143.534 218.16 143.507Z" fill="white"/>
<path d="M220.523 140.343L220.081 140.701L220.687 141.483C220.708 141.509 220.724 141.539 220.734 141.571C220.743 141.603 220.746 141.637 220.742 141.671C220.738 141.704 220.728 141.736 220.711 141.765C220.694 141.795 220.671 141.82 220.644 141.84C220.591 141.881 220.524 141.899 220.457 141.891C220.39 141.883 220.329 141.85 220.287 141.798L218.59 139.671C218.569 139.645 218.553 139.616 218.543 139.584C218.534 139.552 218.531 139.519 218.535 139.486C218.539 139.453 218.55 139.421 218.566 139.392C218.583 139.364 218.606 139.339 218.632 139.319L219.275 138.804C219.374 138.707 219.493 138.632 219.623 138.584C219.753 138.536 219.892 138.516 220.03 138.525C220.169 138.534 220.304 138.572 220.426 138.637C220.549 138.702 220.657 138.792 220.742 138.901C220.828 139.01 220.89 139.136 220.923 139.271C220.957 139.406 220.962 139.546 220.938 139.682C220.914 139.819 220.861 139.949 220.783 140.064C220.706 140.179 220.605 140.276 220.487 140.35L220.523 140.343ZM219.766 140.301L220.208 139.943C220.257 139.904 220.298 139.855 220.328 139.799C220.358 139.744 220.376 139.683 220.383 139.62C220.389 139.557 220.383 139.494 220.365 139.433C220.347 139.373 220.317 139.317 220.278 139.268C220.238 139.219 220.189 139.178 220.133 139.148C220.078 139.118 220.017 139.099 219.954 139.093C219.892 139.087 219.828 139.092 219.768 139.111C219.707 139.129 219.651 139.158 219.602 139.198L219.16 139.556L219.766 140.301Z" fill="white"/>
<path d="M221.99 139.756C221.99 139.724 221.996 139.693 222.008 139.664C222.021 139.635 222.039 139.609 222.061 139.587C222.084 139.565 222.111 139.547 222.14 139.536C222.169 139.524 222.201 139.519 222.232 139.52C222.556 139.526 222.874 139.431 223.141 139.247C223.303 139.121 223.423 138.95 223.487 138.756C223.509 138.692 223.516 138.623 223.506 138.556C223.497 138.488 223.471 138.424 223.432 138.368C223.399 138.328 223.355 138.298 223.305 138.283C223.241 138.266 223.175 138.266 223.111 138.283C222.898 138.323 222.693 138.399 222.505 138.508C222.324 138.609 222.13 138.686 221.929 138.738C221.748 138.792 221.554 138.792 221.372 138.738C221.244 138.695 221.132 138.615 221.051 138.508C220.972 138.4 220.919 138.276 220.896 138.144C220.873 138.013 220.88 137.878 220.917 137.75C220.999 137.478 221.164 137.238 221.39 137.065C221.687 136.85 222.042 136.73 222.408 136.72C222.47 136.718 222.531 136.739 222.578 136.78C222.625 136.82 222.655 136.876 222.663 136.938C222.666 136.97 222.663 137.001 222.654 137.032C222.644 137.062 222.629 137.09 222.609 137.115C222.588 137.139 222.563 137.159 222.535 137.173C222.507 137.188 222.476 137.196 222.444 137.199C222.173 137.197 221.906 137.277 221.681 137.429C221.536 137.544 221.43 137.7 221.378 137.877C221.357 137.932 221.349 137.991 221.357 138.049C221.364 138.108 221.386 138.163 221.42 138.211C221.449 138.247 221.487 138.277 221.529 138.295C221.585 138.306 221.643 138.306 221.699 138.295C221.903 138.27 222.099 138.202 222.275 138.095C222.467 137.99 222.67 137.906 222.881 137.847C223.079 137.791 223.289 137.791 223.487 137.847C223.616 137.894 223.729 137.976 223.814 138.083C223.899 138.197 223.957 138.329 223.981 138.47C224.005 138.61 223.996 138.754 223.953 138.889C223.869 139.183 223.693 139.442 223.45 139.629C223.099 139.884 222.673 140.016 222.238 140.004C222.205 140.006 222.172 140.001 222.141 139.989C222.11 139.977 222.082 139.959 222.059 139.935C222.035 139.912 222.017 139.884 222.005 139.853C221.993 139.822 221.988 139.789 221.99 139.756Z" fill="white"/>
<path d="M219.093 98.275C226.068 103.535 240.303 116.661 238.146 121.121C234.607 128.448 223.499 137.156 219.863 139.259C218.281 140.18 208.924 129.563 210.246 128.096C211.839 126.369 224.123 118.231 223.747 117.091C223.529 116.449 220.505 111.395 217.269 104.723C213.512 96.9599 215.772 95.7479 219.093 98.275Z" fill="#EB9481"/>
<path d="M197.423 135.095C197.502 135.549 197.719 135.967 198.044 136.292C198.37 136.617 198.787 136.834 199.241 136.913C198.918 137.621 198.854 138.418 199.059 139.168C199.489 140.471 201.713 140.38 201.713 140.38C201.53 141.189 201.598 142.034 201.907 142.804C202.44 144.016 204.701 144.234 204.701 144.234C204.945 145.061 205.478 145.773 206.204 146.24C208.191 147.415 211.318 145.785 213.318 144.773C215.318 143.761 220.039 139.004 221.026 138.192L214.627 125.309C214.627 125.309 204.367 127.308 202.192 128.836C200.325 130.102 197.192 133.362 197.423 135.095Z" fill="#EB9481"/>
<path d="M199.198 136.665C200.822 134.847 202.907 133.575 204.907 132.205C204.955 132.205 204.998 132.247 204.955 132.278C202.943 133.617 201.228 135.338 199.277 136.756C199.265 136.764 199.25 136.768 199.235 136.766C199.221 136.764 199.207 136.757 199.197 136.746C199.188 136.734 199.182 136.72 199.183 136.705C199.183 136.69 199.188 136.676 199.198 136.665Z" fill="#263238"/>
<path d="M201.646 140.186C202.057 139.806 202.515 139.482 203.01 139.222C203.513 138.907 204.022 138.616 204.537 138.319C205.567 137.734 206.614 137.172 207.676 136.635C207.719 136.635 207.767 136.677 207.719 136.707C206.694 137.313 205.676 137.919 204.689 138.525C204.186 138.841 203.689 139.131 203.192 139.483C202.744 139.819 202.26 140.103 201.75 140.331C201.74 140.338 201.729 140.343 201.718 140.346C201.706 140.348 201.695 140.348 201.683 140.346C201.66 140.343 201.639 140.329 201.625 140.31C201.612 140.291 201.606 140.267 201.61 140.244C201.614 140.22 201.627 140.2 201.646 140.186Z" fill="#263238"/>
<path d="M204.719 144.186C205.094 143.846 205.524 143.573 205.991 143.38C206.464 143.125 206.943 142.865 207.416 142.598C208.355 142.077 209.3 141.55 210.227 140.992C210.276 140.992 210.318 141.035 210.276 141.059C209.337 141.635 208.409 142.216 207.464 142.78C207.004 143.059 206.537 143.331 206.07 143.604C205.668 143.883 205.218 144.089 204.743 144.21C204.743 144.21 204.701 144.228 204.719 144.186Z" fill="#263238"/>
<path d="M231.88 107.547L220.663 114.304C220.663 114.304 216.112 106.371 214.839 100.972C213.566 95.5724 216.887 95.5179 221.287 98.6085C225.686 101.699 231.88 107.547 231.88 107.547Z" fill="#6167DE"/>
<path opacity="0.1" d="M215.196 97.0509L216.214 96.6025C216.592 96.5657 216.972 96.5903 217.342 96.6752L214.724 97.8387C214.807 97.5383 214.971 97.2661 215.196 97.0509ZM214.59 99.6264L219.438 97.4873C219.226 97.3782 219.026 97.2752 218.832 97.1843L214.59 99.0689C214.583 99.2548 214.587 99.441 214.603 99.6264H214.59ZM214.887 101.226L221.062 98.4932L220.584 98.172L214.802 100.729C214.802 100.826 214.845 100.923 214.869 101.026C214.876 101.085 214.886 101.144 214.899 101.202L214.887 101.226ZM215.324 102.759L222.541 99.5659L222.05 99.2083L215.166 102.238C215.227 102.414 215.281 102.596 215.336 102.759H215.324ZM215.851 104.262L223.959 100.669L223.486 100.299L215.663 103.765C215.736 103.929 215.802 104.093 215.863 104.262H215.851ZM216.457 105.735L225.365 101.79L224.911 101.414L216.257 105.244L216.457 105.735ZM217.063 107.195L226.692 102.953L226.244 102.566L216.851 106.729C216.948 106.868 216.996 107.032 217.069 107.195H217.063ZM217.499 108.153C217.572 108.316 217.645 108.474 217.723 108.632L228.025 104.068L227.589 103.687L217.499 108.153ZM218.178 109.583C218.257 109.747 218.329 109.904 218.408 110.056L229.316 105.208C229.183 105.08 229.037 104.953 228.886 104.82L218.178 109.583ZM218.881 111.001L219.123 111.468L230.607 106.383L230.177 105.996L218.881 111.001ZM219.614 112.407C219.699 112.571 219.784 112.728 219.869 112.868L231.831 107.571H231.867L231.455 107.183L219.614 112.407ZM220.372 113.801C220.499 114.037 220.596 114.195 220.632 114.267L220.947 114.128L224.583 111.928L220.372 113.801Z" fill="black"/>
<path d="M220.02 111.934C223.084 109.841 226.282 107.952 229.595 106.28C229.595 106.28 229.662 106.347 229.644 106.359C227.129 108.056 221.856 111.056 220.087 112.049C220.051 112.068 219.978 111.958 220.02 111.934Z" fill="#263238"/>
<path d="M216.772 107.826H216.802C217.099 108.202 217.378 108.583 217.651 108.977C217.247 108.072 216.869 107.163 216.518 106.25C216.518 106.214 216.554 106.196 216.566 106.25C217.936 108.88 219.36 111.474 220.675 114.128C220.978 114.049 221.281 113.971 221.584 113.868C221.594 113.865 221.605 113.866 221.614 113.871C221.623 113.875 221.631 113.884 221.634 113.893C221.638 113.903 221.638 113.914 221.634 113.924C221.631 113.934 221.623 113.942 221.614 113.946C221.299 114.092 221.008 114.262 220.687 114.437C220.657 114.466 220.616 114.482 220.575 114.482C220.533 114.482 220.493 114.466 220.463 114.437C219.561 112.962 218.751 111.432 218.039 109.856C217.863 109.626 217.687 109.401 217.53 109.165C217.245 108.737 216.992 108.29 216.772 107.826Z" fill="#263238"/>
<path d="M214.663 96.7783C214.772 97.3176 213.882 101.541 211.633 102.45C210.888 102.741 209.07 98.7781 209.07 98.7781L208.876 98.5175L206.088 94.833L209.506 89.5426L210.015 88.8154C210.015 88.8154 210.712 89.8759 211.561 91.2031L211.682 91.3909C211.734 91.4608 211.783 91.5336 211.827 91.6091C211.954 91.803 212.088 92.003 212.215 92.2151C212.342 92.4272 212.409 92.5181 212.506 92.6817C212.603 92.8453 212.7 93.009 212.803 93.1726C213.503 94.3313 214.125 95.536 214.663 96.7783Z" fill="#EB9481"/>
<path d="M211.566 91.1909C211.676 92.5318 211.493 93.8805 211.029 95.1435C210.566 96.4066 209.833 97.5537 208.882 98.5053L206.094 94.8208L209.512 89.5304L210.021 88.8032C210.021 88.8032 210.718 89.8637 211.566 91.1909Z" fill="#263238"/>
<path d="M196.623 89.894C197.647 97.9417 202.58 98.2326 204.313 98.0144C205.888 97.8084 211.221 96.9236 211.039 88.8153C210.858 80.7071 206.797 78.6406 203.161 78.9133C199.525 79.186 195.599 81.8524 196.623 89.894Z" fill="#EB9481"/>
<path d="M197.556 88.3608C197.735 88.3062 197.911 88.2414 198.083 88.1669C198.278 88.1248 198.453 88.018 198.58 87.8639C198.611 87.8084 198.622 87.7444 198.612 87.6818C198.602 87.6193 198.572 87.5618 198.525 87.5185C198.422 87.4433 198.301 87.3979 198.173 87.3872C198.046 87.3765 197.919 87.401 197.804 87.4579C197.551 87.5284 197.334 87.6932 197.198 87.9184C197.17 87.9719 197.158 88.0327 197.164 88.093C197.169 88.1534 197.193 88.2107 197.231 88.2578C197.269 88.305 197.32 88.3399 197.378 88.3582C197.436 88.3765 197.498 88.3774 197.556 88.3608Z" fill="#263238"/>
<path d="M203.077 87.5249C202.889 87.5249 202.707 87.5249 202.519 87.4885C202.321 87.5045 202.123 87.4555 201.956 87.3491C201.909 87.3047 201.879 87.2457 201.87 87.1819C201.861 87.118 201.874 87.0531 201.907 86.9977C201.984 86.8964 202.088 86.8181 202.206 86.7712C202.325 86.7242 202.454 86.7103 202.58 86.731C202.839 86.7288 203.09 86.8239 203.283 86.9977C203.325 87.0401 203.354 87.0941 203.367 87.1528C203.379 87.2116 203.374 87.2727 203.352 87.3286C203.33 87.3845 203.292 87.4328 203.243 87.4677C203.195 87.5026 203.137 87.5224 203.077 87.5249Z" fill="#263238"/>
<path d="M202.101 89.688C202.101 89.688 202.149 89.688 202.149 89.7304C202.204 90.2819 202.355 90.9 202.871 91.0212V91.0515C202.258 91.0394 202.065 90.2091 202.101 89.688Z" fill="#263238"/>
<path d="M202.519 89.0455C203.392 88.8698 203.682 90.6272 202.876 90.7908C202.07 90.9544 201.798 89.197 202.519 89.0455Z" fill="#263238"/>
<path d="M202.883 89.0822C203.053 89.1549 203.228 89.3064 203.416 89.2943C203.604 89.2822 203.768 89.0701 203.877 88.8701C203.877 88.8701 203.907 88.8701 203.913 88.8701C203.974 89.2095 203.913 89.5791 203.549 89.6882C203.186 89.7973 202.943 89.5307 202.798 89.2034C202.774 89.1549 202.81 89.0822 202.883 89.0822Z" fill="#263238"/>
<path d="M199.053 90.0698C199.053 90.0698 199.017 90.1001 199.023 90.1244C199.132 90.6637 199.168 91.3 198.708 91.5666C198.708 91.5666 198.708 91.603 198.708 91.5969C199.307 91.4091 199.247 90.5607 199.053 90.0698Z" fill="#263238"/>
<path d="M198.471 89.5852C197.586 89.67 197.822 91.4032 198.641 91.3547C199.459 91.3062 199.216 89.5124 198.471 89.5852Z" fill="#263238"/>
<path d="M198.119 89.7485C197.992 89.8637 197.877 90.0515 197.707 90.0818C197.538 90.1121 197.35 89.9485 197.204 89.7849C197.235 90.1243 197.398 90.4636 197.732 90.4879C198.065 90.5121 198.21 90.1849 198.247 89.8394C198.229 89.791 198.162 89.6879 198.119 89.7485Z" fill="#263238"/>
<path d="M200.659 93.5786C200.922 93.8582 201.251 94.0667 201.616 94.1846C201.814 94.2454 202.025 94.2454 202.222 94.1846C202.652 94.0271 202.628 93.6211 202.513 93.2817C202.452 93.1015 202.371 92.9287 202.271 92.7666C201.831 93.1986 201.268 93.4826 200.659 93.5786Z" fill="#263238"/>
<path d="M201.616 94.1905C201.814 94.2513 202.025 94.2513 202.222 94.1905C202.652 94.033 202.628 93.627 202.513 93.2876C202.285 93.3189 202.074 93.4242 201.912 93.5874C201.75 93.7506 201.646 93.9625 201.616 94.1905Z" fill="#FF97B8"/>
<path d="M200.319 92.5182C200.319 92.5182 200.319 93.3545 200.392 93.7302C200.392 93.7666 200.495 93.7666 200.628 93.7302C200.968 93.7392 201.304 93.6547 201.599 93.4858C201.894 93.3169 202.137 93.0703 202.301 92.7727C202.301 92.7364 202.265 92.7 202.234 92.7303C201.796 93.1395 201.237 93.3966 200.641 93.4636C200.592 93.3605 200.641 92.0395 200.604 92.0455C200.309 92.1156 200.025 92.2278 199.762 92.3788C199.683 90.6396 199.883 88.9125 199.762 87.1854C199.762 87.1709 199.756 87.1571 199.746 87.1468C199.736 87.1366 199.722 87.1309 199.707 87.1309C199.693 87.1309 199.679 87.1366 199.669 87.1468C199.659 87.1571 199.653 87.1709 199.653 87.1854C199.382 89.0347 199.295 90.9062 199.392 92.7727C199.429 93.0212 200.18 92.6091 200.319 92.5182Z" fill="#263238"/>
<path d="M211.427 91.7787C211.32 91.8515 211.204 91.9105 211.082 91.9544C210.964 92.0032 210.839 92.0338 210.712 92.0453C210.547 92.0673 210.379 92.0507 210.221 91.9968C210.099 91.9563 209.983 91.8992 209.876 91.8272C209.721 91.7271 209.586 91.5998 209.476 91.4514V89.2395C209.476 89.2395 210.688 86.3913 211.9 86.7671C213.112 87.1428 212.645 91.0091 211.427 91.7787Z" fill="#EB9481"/>
<path d="M211.246 91.4698C211.246 91.5191 211.237 91.5682 211.219 91.6141C211.201 91.66 211.174 91.7018 211.14 91.7373C211.106 91.7727 211.065 91.8011 211.019 91.8207C210.974 91.8403 210.925 91.8508 210.876 91.8516C210.827 91.8524 210.778 91.8435 210.732 91.8253C210.686 91.8072 210.644 91.7802 210.608 91.7458C210.573 91.7115 210.545 91.6705 210.525 91.6253C210.505 91.58 210.495 91.5313 210.494 91.4819C210.494 91.3817 210.534 91.2855 210.604 91.2141C210.674 91.1427 210.77 91.1017 210.87 91.1001C210.919 91.0993 210.968 91.1083 211.013 91.1265C211.059 91.1447 211.1 91.1718 211.135 91.2063C211.17 91.2407 211.198 91.2817 211.217 91.3269C211.236 91.3722 211.246 91.4207 211.246 91.4698Z" fill="white"/>
<path d="M211.882 90.7548C211.882 90.8245 211.855 90.8914 211.806 90.9412C211.757 90.9911 211.691 91.0198 211.621 91.0214C211.586 91.0222 211.551 91.0161 211.519 91.0035C211.486 90.9908 211.456 90.9718 211.431 90.9476C211.406 90.9234 211.385 90.8945 211.371 90.8624C211.357 90.8304 211.349 90.7959 211.349 90.7609C211.349 90.6901 211.377 90.6223 211.427 90.5723C211.477 90.5223 211.545 90.4942 211.615 90.4942C211.65 90.4934 211.685 90.4995 211.717 90.5123C211.749 90.525 211.779 90.5441 211.803 90.5684C211.828 90.5926 211.848 90.6216 211.862 90.6537C211.875 90.6857 211.882 90.7201 211.882 90.7548Z" fill="white"/>
<path d="M210.639 88.7488C209.342 89.1003 208.549 86.1006 208.549 86.1006C208.549 86.1006 205.87 86.6157 204.252 82.9312C204.548 84.0696 205.169 85.0971 206.04 85.8885C206.04 85.8885 201.192 86.5793 198.453 83.0039C198.453 83.0039 199.628 84.8704 200.507 85.4279C199.239 85.2863 198.056 84.7204 197.15 83.822C197.15 83.822 196.756 86.246 196.235 87.0156C196.235 87.0156 194.865 78.7074 202.689 78.1317C202.689 78.1317 207.537 77.5257 209.961 81.0102C212.385 84.4947 210.639 88.7488 210.639 88.7488Z" fill="#263238"/>
<path d="M156.287 262.428C155.075 262.798 120.218 261.646 118.921 260.755C118.425 260.428 118.315 255.344 118.315 249.193C118.315 249.126 118.315 249.066 118.315 248.999C118.315 247.732 118.861 226.48 118.861 226.48L143.246 227.213L140.822 249.49V249.872C140.822 249.872 153.924 256.277 155.245 257.404C156.566 258.531 157.518 262.064 156.287 262.428Z" fill="#FFC4C0"/>
<path d="M156.287 262.428C155.075 262.798 120.218 261.647 118.921 260.756C118.425 260.428 118.315 255.344 118.315 249.193V248.999C118.315 248.654 118.315 246.927 118.418 244.315L141.277 245.194L140.804 249.49V249.872C140.804 249.872 153.948 256.283 155.269 257.405C156.59 258.526 157.518 262.059 156.287 262.428Z" fill="#EBEBEB"/>
<path d="M156.554 262.579C155.342 262.949 120.133 261.78 118.818 260.883C118.315 260.549 118.212 255.429 118.212 249.205L140.895 249.896C140.895 249.896 154.16 256.368 155.5 257.501C156.839 258.634 157.796 262.21 156.554 262.579Z" fill="#6167DE"/>
<path d="M156.094 261.186C150.203 260.841 126.4 260.022 120.558 260.132C120.509 260.132 120.503 260.168 120.558 260.168C126.393 260.634 150.197 261.265 156.1 261.283C156.215 261.253 156.221 261.186 156.094 261.186Z" fill="#263238"/>
<path d="M153.276 256.162C152.621 256.124 151.965 256.221 151.35 256.449C150.735 256.676 150.173 257.028 149.7 257.483C148.844 258.298 148.336 259.411 148.282 260.592C148.282 260.628 148.343 260.628 148.349 260.592C148.584 259.428 149.192 258.373 150.082 257.587C150.971 256.801 152.092 256.326 153.276 256.235C153.285 256.235 153.295 256.231 153.301 256.224C153.308 256.217 153.312 256.208 153.312 256.198C153.312 256.189 153.308 256.179 153.301 256.173C153.295 256.166 153.285 256.162 153.276 256.162Z" fill="#263238"/>
<path d="M143.161 250.563C140.804 250.447 138.041 251.169 136.495 253.071C136.435 253.144 136.538 253.229 136.611 253.193C138.716 252.191 140.922 251.417 143.192 250.884C143.213 250.882 143.233 250.876 143.252 250.866C143.271 250.856 143.287 250.842 143.301 250.826C143.314 250.81 143.324 250.791 143.331 250.771C143.337 250.75 143.339 250.729 143.337 250.708C143.335 250.687 143.329 250.666 143.319 250.648C143.309 250.629 143.296 250.612 143.279 250.599C143.263 250.585 143.244 250.575 143.224 250.569C143.204 250.563 143.182 250.561 143.161 250.563Z" fill="#263238"/>
<path d="M144.961 251.332C142.604 251.217 139.834 251.938 138.295 253.841C138.235 253.914 138.338 253.998 138.41 253.968C140.51 252.954 142.712 252.168 144.979 251.623C145.018 251.621 145.054 251.603 145.08 251.574C145.105 251.545 145.118 251.507 145.116 251.468C145.113 251.43 145.096 251.394 145.067 251.368C145.038 251.343 145 251.33 144.961 251.332Z" fill="#263238"/>
<path d="M146.761 252.096C144.398 251.987 141.634 252.702 140.095 254.611C140.034 254.683 140.137 254.762 140.21 254.732C142.31 253.718 144.512 252.931 146.779 252.387C146.818 252.384 146.854 252.367 146.879 252.338C146.905 252.309 146.918 252.271 146.916 252.232C146.913 252.193 146.895 252.157 146.866 252.132C146.838 252.106 146.8 252.093 146.761 252.096Z" fill="#263238"/>
<path d="M148.555 252.872C146.198 252.762 143.434 253.478 141.889 255.386C141.834 255.459 141.937 255.544 142.01 255.508C144.11 254.493 146.312 253.707 148.579 253.162C148.598 253.161 148.617 253.156 148.634 253.147C148.651 253.138 148.666 253.126 148.678 253.111C148.691 253.097 148.7 253.08 148.706 253.061C148.712 253.043 148.714 253.024 148.712 253.005C148.711 252.986 148.705 252.967 148.697 252.95C148.688 252.933 148.676 252.918 148.661 252.906C148.647 252.893 148.63 252.884 148.611 252.878C148.593 252.872 148.574 252.87 148.555 252.872Z" fill="#263238"/>
<path d="M122.242 254.55C119.594 254.471 119.467 258.586 122.121 258.671C124.775 258.756 124.896 254.635 122.242 254.55Z" fill="#263238"/>
<path d="M145.925 244.345C144.761 243.315 143.222 244.236 142.452 245.236C141.162 246.986 140.353 249.044 140.107 251.205C140.107 251.253 140.137 251.271 140.18 251.271C140.188 251.316 140.206 251.358 140.234 251.394C140.261 251.43 140.296 251.459 140.337 251.479C140.378 251.499 140.422 251.51 140.468 251.509C140.513 251.509 140.557 251.498 140.598 251.477C142.313 250.369 144.288 249.399 145.622 247.799C146.397 246.866 147.021 245.321 145.925 244.345ZM142.858 249.266C142.028 249.829 141.173 250.35 140.361 250.944C140.785 249.771 141.268 248.62 141.81 247.496C142.074 246.952 142.38 246.43 142.725 245.933C143.264 245.169 145.646 243.272 145.791 245.848C145.876 247.248 143.852 248.593 142.858 249.266Z" fill="#263238"/>
<path d="M134.211 251.884C136.259 252.265 138.398 251.75 140.428 251.508C140.472 251.498 140.513 251.477 140.547 251.449C140.582 251.42 140.609 251.384 140.628 251.343C140.646 251.301 140.654 251.257 140.652 251.212C140.65 251.167 140.638 251.123 140.616 251.084C140.624 251.077 140.63 251.07 140.634 251.061C140.638 251.052 140.64 251.042 140.64 251.032C140.64 251.022 140.638 251.013 140.634 251.004C140.63 250.995 140.624 250.987 140.616 250.981C139.05 249.475 137.114 248.409 135.004 247.89C133.792 247.605 131.974 247.89 131.762 249.417C131.55 250.944 133.017 251.659 134.211 251.884ZM132.835 250.49C131.302 248.411 134.35 248.351 135.259 248.593C135.839 248.758 136.408 248.96 136.962 249.199C138.098 249.721 139.207 250.301 140.283 250.938C139.277 250.993 138.289 251.138 137.283 251.235C136.077 251.362 133.677 251.635 132.835 250.49Z" fill="#263238"/>
<path d="M142.786 247.793H115.516C115.516 247.793 120.364 210.651 118.758 208.227C118.467 207.791 112.389 208.124 104.59 207.912C93.2998 207.597 78.3983 206.13 72.2716 199.489C62.7998 189.229 72.4413 170.007 72.4413 170.007H101.529C101.529 170.007 102.135 178.248 103.687 181.521C103.747 181.648 104.068 181.745 104.608 181.83C110.007 182.66 137.289 181.763 141.913 190.199C148.676 202.616 142.786 247.793 142.786 247.793Z" fill="#37474F"/>
<path d="M118.382 242.606C121.46 242.515 124.551 242.394 127.629 242.394C130.708 242.394 133.811 242.46 136.895 242.581C137.768 242.618 140.343 242.739 140.761 242.769C141.182 242.778 141.601 242.815 142.016 242.878C142.064 242.878 142.052 242.951 142.016 242.957C141.343 243.078 134.362 243.157 132.829 243.157C129.763 243.157 126.696 243.078 123.624 242.969C121.879 242.909 120.139 242.842 118.394 242.769C118.297 242.763 118.285 242.606 118.382 242.606Z" fill="#263238"/>
<path d="M121.691 206.47C121.626 206.147 121.463 205.853 121.224 205.626C120.986 205.399 120.683 205.252 120.358 205.203C119.575 205.118 118.786 205.101 118 205.155C116.182 205.155 114.364 205.191 112.546 205.197C105.383 205.197 98.1659 205.009 91.1242 203.597C87.6882 202.941 84.3307 201.925 81.107 200.567C78.38 199.386 75.653 197.762 73.9441 195.247C71.9806 192.356 71.8291 188.581 71.8958 185.187C71.9677 181.531 72.5574 177.903 73.6471 174.413C73.9259 173.528 74.241 172.655 74.5925 171.795C74.5925 171.74 74.5319 171.692 74.5137 171.752C73.0652 175.06 72.1077 178.561 71.6716 182.145C71.4574 183.906 71.3764 185.681 71.4292 187.454C71.4311 189.192 71.6572 190.924 72.1018 192.605C73.9562 198.937 81.0525 201.555 86.7973 203.167C93.6997 205.1 100.905 205.64 108.05 205.749C111.643 205.797 115.237 205.749 118.824 205.7C119.515 205.7 120.642 205.494 121.048 206.215C121.228 206.628 121.337 207.069 121.37 207.518C121.448 208.027 121.503 208.536 121.545 209.045C121.646 210.956 121.62 212.871 121.467 214.778C121.236 218.649 120.968 222.521 120.661 226.395C120.352 230.292 119.921 234.176 119.636 238.067C119.57 239.024 119.473 239.976 119.382 240.927C119.382 241.036 119.564 241.06 119.576 240.927C120.57 233.231 121.285 225.498 121.794 217.754C121.915 215.845 122.06 213.93 122.109 212.015C122.222 210.156 122.081 208.291 121.691 206.47Z" fill="#263238"/>
<path d="M104.577 181.848V207.906C93.2876 207.591 78.3861 206.125 72.2594 199.483C62.7876 189.223 72.4291 170.001 72.4291 170.001H101.517C101.517 170.001 102.123 178.243 103.674 181.515C103.717 181.666 104.038 181.763 104.577 181.848Z" fill="#263238"/>
<path d="M26.7367 260.955C26.8761 259.683 41.5473 228.062 42.8684 227.213C43.3653 226.88 48.0982 228.753 53.7764 231.177L53.9521 231.249C55.1217 231.746 76.6287 237.527 76.6287 237.527L67.0963 258.222L44.6925 251.756L44.347 251.587C44.347 251.587 33.33 261.186 31.7665 261.961C30.203 262.737 26.5912 262.234 26.7367 260.955Z" fill="#FFC4C0"/>
<path d="M58.0183 232.455L48.2132 252.768L44.6923 251.756L44.3469 251.587C44.3469 251.587 33.3298 261.186 31.7663 261.955C30.2029 262.725 26.585 262.234 26.7365 260.962C26.888 259.689 41.5472 228.056 42.8683 227.213C43.3652 226.88 48.098 228.747 53.7763 231.177L53.9459 231.249C54.2186 231.377 55.8064 231.837 58.0183 232.455Z" fill="#EBEBEB"/>
<path d="M26.6093 261.113C26.7487 259.829 41.4563 227.844 42.7835 226.983C43.2865 226.65 48.0739 228.523 53.7884 230.947L44.3651 251.593C44.3651 251.593 33.2572 261.319 31.6937 262.107C30.1302 262.895 26.47 262.398 26.6093 261.113Z" fill="#6167DE"/>
<path d="M28.0999 261.246C30.6936 255.944 40.6684 234.322 42.8318 228.886C42.8318 228.844 42.8318 228.825 42.8015 228.886C40.1109 234.067 30.2997 255.768 28.009 261.186C27.9606 261.319 28.0454 261.356 28.0999 261.246Z" fill="#263238"/>
<path d="M33.7903 260.58C34.08 259.992 34.2447 259.35 34.2739 258.695C34.3031 258.04 34.1962 257.386 33.96 256.774C33.5423 255.668 32.7127 254.767 31.6451 254.259C31.6451 254.259 31.5845 254.302 31.6451 254.32C32.6276 254.993 33.3626 255.97 33.738 257.1C34.1133 258.23 34.1083 259.453 33.7237 260.58C33.7116 260.58 33.7722 260.622 33.7903 260.58Z" fill="#263238"/>
<path d="M42.8744 253.423C43.8925 251.29 44.2803 248.454 43.135 246.314C43.0926 246.236 42.9774 246.314 42.9774 246.375C43.0989 248.703 42.9709 251.037 42.5957 253.338C42.5844 253.375 42.5883 253.415 42.6065 253.449C42.6247 253.483 42.6557 253.508 42.6926 253.52C42.7296 253.531 42.7695 253.527 42.8036 253.509C42.8377 253.491 42.8632 253.46 42.8744 253.423Z" fill="#263238"/>
<path d="M41.4686 254.786C42.4867 252.653 42.8745 249.817 41.7292 247.678C41.6867 247.593 41.5655 247.678 41.5716 247.738C41.6987 250.066 41.5768 252.4 41.208 254.701C41.2088 254.731 41.2189 254.76 41.2369 254.785C41.2548 254.809 41.2798 254.826 41.3084 254.836C41.3369 254.845 41.3676 254.845 41.3963 254.836C41.425 254.828 41.4503 254.81 41.4686 254.786Z" fill="#263238"/>
<path d="M40.0623 256.144C41.0744 254.011 41.4622 251.174 40.3229 249.035C40.2805 248.95 40.1593 249.035 40.1654 249.096C40.2878 251.424 40.1578 253.759 39.7775 256.059C39.7742 256.094 39.7832 256.129 39.8028 256.158C39.8224 256.187 39.8515 256.208 39.8851 256.218C39.9187 256.228 39.9547 256.226 39.987 256.213C40.0194 256.199 40.046 256.175 40.0623 256.144Z" fill="#263238"/>
<path d="M38.6566 257.501C39.6686 255.368 40.0564 252.532 38.9172 250.393C38.8687 250.314 38.7535 250.393 38.7596 250.454C38.876 252.782 38.746 255.116 38.3718 257.417C38.3685 257.451 38.3774 257.486 38.397 257.515C38.4167 257.544 38.4457 257.566 38.4793 257.576C38.5129 257.586 38.549 257.584 38.5813 257.57C38.6136 257.557 38.6402 257.532 38.6566 257.501Z" fill="#263238"/>
<path d="M47.2983 232.595C48.3952 230.171 44.6501 228.468 43.5532 230.88C42.4564 233.292 46.1954 235.007 47.2983 232.595Z" fill="#263238"/>
<path d="M47.5347 258.374C48.9346 257.701 48.6861 255.95 48.0559 254.829C46.945 252.962 45.363 251.42 43.4685 250.357C43.46 250.352 43.4504 250.349 43.4405 250.348C43.4306 250.348 43.4207 250.35 43.4118 250.354C43.4028 250.358 43.395 250.364 43.389 250.372C43.3831 250.38 43.3791 250.389 43.3776 250.399C43.2018 250.399 42.9897 250.496 43.0261 250.702C43.3776 252.72 43.5048 254.914 44.4684 256.762C45.0319 257.835 46.2136 259.01 47.5347 258.374ZM44.1835 253.647C43.9896 252.66 43.8381 251.672 43.5775 250.69C44.4975 251.535 45.3734 252.427 46.2015 253.362C46.5976 253.82 46.962 254.304 47.2923 254.811C47.7832 255.605 48.6073 258.538 46.1773 257.677C44.8441 257.198 44.4199 254.823 44.1835 253.647Z" fill="#263238"/>
<path d="M45.1225 244.66C43.9772 246.399 43.6196 248.569 43.0621 250.538C43.0076 250.738 43.2015 250.884 43.3833 250.878C43.3844 250.887 43.3876 250.896 43.3929 250.904C43.3981 250.912 43.4052 250.919 43.4134 250.923C43.4217 250.928 43.4309 250.931 43.4404 250.931C43.4499 250.932 43.4594 250.93 43.4681 250.926C45.4592 250.062 47.1877 248.689 48.4797 246.945C49.2191 245.921 49.6493 244.181 48.3282 243.369C47.0072 242.557 45.7891 243.648 45.1225 244.66ZM46.9405 243.927C49.4493 243.321 48.3282 246.151 47.7525 246.89C47.3787 247.359 46.9738 247.803 46.5405 248.217C45.6144 249.065 44.6434 249.862 43.6317 250.605C43.965 249.66 44.2377 248.69 44.5165 247.726C44.874 246.581 45.5588 244.26 46.9405 243.927Z" fill="#263238"/>
<path d="M101.844 170.019C101.844 170.019 103.493 177.861 103.396 181.854C103.396 181.854 99.3962 188.308 98.7902 188.69C98.7902 188.69 112.353 226.838 111.474 241.024C111.189 245.672 106.238 251.556 100.917 254.871C91.5061 260.725 48.2256 257.344 48.2256 257.344L54.8916 229.716C54.8916 229.716 80.9496 231.334 81.6889 229.765C82.6221 227.771 76.8409 212.263 72.2171 199.659C71.7505 198.386 67.1025 193.689 67.6418 185.193C68.0578 179.945 69.4124 174.813 71.6414 170.043L101.844 170.019Z" fill="#37474F"/>
<path d="M60.1937 232.789C66.5264 232.673 71.7077 233.213 78.0343 233.213H82.2279C82.7834 233.229 83.3388 233.178 83.8822 233.061C84.3867 232.978 84.8412 232.708 85.1548 232.304C85.573 231.698 85.3488 230.88 85.2033 230.195C84.8882 228.704 84.5246 227.226 84.1307 225.753C82.5369 219.766 80.4523 213.918 78.4888 208.04L75.4588 198.95C75.2104 198.21 74.968 197.477 74.6589 196.762C74.3618 196.111 74.028 195.478 73.659 194.865C72.9431 193.689 72.3656 192.435 71.938 191.126C70.223 185.49 71.8713 179.655 73.8772 174.34C74.1438 173.625 74.4226 172.916 74.7135 172.213C74.7135 172.202 74.7179 172.191 74.7259 172.183C74.7338 172.175 74.7446 172.17 74.7559 172.17C74.7671 172.17 74.7779 172.175 74.7859 172.183C74.7938 172.191 74.7983 172.202 74.7983 172.213C72.9803 177.824 70.7926 183.666 72.0168 189.654C72.3029 191.062 72.7972 192.42 73.4833 193.683C73.8348 194.326 74.2165 194.95 74.562 195.598C74.9031 196.257 75.1967 196.94 75.4407 197.641C76.5193 200.616 77.4708 203.64 78.4707 206.64C80.4705 212.603 82.5793 218.548 84.2458 224.62C84.6498 226.131 85.0296 227.65 85.3851 229.177C85.6396 230.304 86.2032 231.843 85.2215 232.776C84.5004 233.455 83.3671 233.54 82.4278 233.546C80.8462 233.546 79.2706 233.546 77.6889 233.546C71.2593 233.546 60.9754 232.989 60.1816 232.976C60.1672 232.965 60.1558 232.95 60.1484 232.933C60.141 232.916 60.1377 232.898 60.1389 232.879C60.1401 232.861 60.1457 232.843 60.1552 232.827C60.1648 232.812 60.178 232.798 60.1937 232.789Z" fill="#263238"/>
<path d="M53.1035 256.059C53.7095 252.835 54.3155 249.593 55.0367 246.363C55.7578 243.133 56.5214 239.946 57.3576 236.752C57.594 235.855 57.8364 234.934 58.0727 234.055C58.1879 233.625 58.303 233.201 58.4303 232.771C58.5376 232.335 58.6691 231.906 58.8242 231.486C58.8242 231.437 58.909 231.486 58.9029 231.486C58.8151 232.321 58.6693 233.149 58.4666 233.964C58.303 234.74 58.1576 235.522 57.9939 236.304C57.6667 237.92 57.3273 239.517 56.9759 241.097C56.279 244.297 55.4851 247.472 54.667 250.642C54.2064 252.447 53.7398 254.249 53.2671 256.047C53.2637 256.065 53.2543 256.082 53.2403 256.095C53.2264 256.107 53.2087 256.115 53.19 256.116C53.1713 256.118 53.1527 256.113 53.1371 256.102C53.1214 256.092 53.1096 256.077 53.1035 256.059Z" fill="#263238"/>
<path d="M98.1717 182.527C98.0686 181.527 97.9777 180.533 97.8929 179.539C97.705 177.267 97.5414 174.982 97.5293 172.71C97.5293 172.534 97.7535 172.564 97.7717 172.71C97.9171 174.473 98.0262 176.243 98.1656 178.006C98.305 179.77 98.4019 181.539 98.6565 183.278C98.7292 183.806 98.9049 184.684 99.4988 184.751C100.287 184.836 100.462 183.648 100.547 183.006C100.732 181.382 100.793 179.748 100.729 178.115C100.687 176.249 100.517 174.37 100.371 172.504C100.371 172.437 100.468 172.437 100.481 172.504C101.087 176.17 101.656 180 101.008 183.63C100.887 184.339 100.584 185.078 99.9109 185.266H99.8745C99.8795 185.288 99.8795 185.311 99.8745 185.333C99.8745 185.436 99.8745 185.539 99.8745 185.642C99.8745 185.745 99.8745 185.817 99.8745 185.908C99.8745 186.09 99.8745 186.272 99.8745 186.454C99.8745 186.636 99.6624 186.605 99.6382 186.454C99.6151 186.45 99.5941 186.438 99.5787 186.42C99.5633 186.403 99.5543 186.38 99.5533 186.357C99.5067 186.001 99.5211 185.641 99.5958 185.29C99.3907 185.268 99.1945 185.195 99.0259 185.076C98.8573 184.957 98.7218 184.797 98.6322 184.611C98.3368 183.956 98.18 183.246 98.1717 182.527Z" fill="#263238"/>
<path d="M102.184 183.915C100.276 185.831 98.5383 187.91 96.9902 190.126C96.9296 190.217 97.0447 190.32 97.1174 190.236C98.9354 188.224 100.753 186.23 102.426 184.121C102.453 184.089 102.467 184.047 102.463 184.005C102.46 183.963 102.44 183.924 102.408 183.897C102.376 183.869 102.334 183.856 102.292 183.859C102.25 183.863 102.211 183.883 102.184 183.915Z" fill="#263238"/>
<path d="M78.81 182.86C79.4392 182.864 80.0675 182.815 80.6886 182.715C81.2392 182.608 81.7834 182.47 82.3188 182.303C83.3247 182.006 84.5549 181.655 85.2882 180.855C86.0003 179.983 86.5689 179.003 86.9729 177.952C87.479 176.856 87.8122 175.689 87.9606 174.492C87.9606 174.437 88.0515 174.437 88.0455 174.492C87.9712 175.731 87.7681 176.96 87.4395 178.158C87.2571 178.753 87.0281 179.332 86.7547 179.891C86.4189 180.759 85.8403 181.512 85.0881 182.06C84.3359 182.608 83.4418 182.928 82.5127 182.982C81.2886 183.205 80.0341 183.205 78.81 182.982C78.707 183.012 78.7373 182.867 78.81 182.86Z" fill="#263238"/>
<path d="M106.244 144.385C111.51 151.96 119.576 161.959 124.2 162.238C127.836 162.456 138.441 157.863 146.016 152.869C147.537 151.869 135.974 139.537 134.998 140.398C132.126 142.822 125.212 149.348 124.696 149.003C124 148.555 116.085 144.155 110.152 139.465C102.959 133.835 102.735 139.343 106.244 144.385Z" fill="#FFC4C0"/>
<path d="M145.615 153.057C147.258 152.354 154.53 148.47 156.275 146.943C158.02 145.416 162.838 140.634 161.802 139.162C160.765 137.689 159.257 138.968 159.257 138.968C159.257 138.968 160.959 136.629 159.778 135.235C158.596 133.841 156.348 135.926 156.348 135.926C156.348 135.926 157.917 133.399 156.645 132.09C155.372 130.781 153.421 133.259 153.421 133.259C153.421 133.259 154.966 131.017 153.463 130.381C151.645 129.623 149.276 134.078 147.191 135.623C146.718 135.974 137.083 142.04 137.083 142.04L145.615 153.057Z" fill="#FFC4C0"/>
<path d="M153.56 133.053C151.803 136.326 150.464 137.453 147.282 139.253C147.216 139.289 147.282 139.392 147.325 139.362C150.603 137.883 152.488 136.707 153.724 133.126C153.785 132.956 153.645 132.896 153.56 133.053Z" fill="#263238"/>
<path d="M156.451 135.659C154.324 138.901 152.888 140.137 149.688 142.27C149.645 142.27 149.688 142.38 149.736 142.355C153.051 140.537 154.899 139.325 156.596 135.792C156.675 135.635 156.548 135.514 156.451 135.659Z" fill="#263238"/>
<path d="M159.087 139.071C156.808 142.058 155.287 143.482 151.918 145.131C151.91 145.134 151.902 145.139 151.896 145.146C151.889 145.152 151.884 145.16 151.881 145.169C151.878 145.177 151.876 145.186 151.876 145.195C151.876 145.204 151.878 145.213 151.882 145.222C151.885 145.23 151.89 145.238 151.897 145.244C151.903 145.25 151.911 145.255 151.919 145.259C151.928 145.262 151.937 145.264 151.946 145.264C151.955 145.263 151.964 145.262 151.972 145.258C155.572 143.888 157.481 142.125 159.172 139.125C159.287 138.943 159.232 138.883 159.087 139.071Z" fill="#263238"/>
<path d="M169.88 144.107L147.537 150.16L139.762 121.478L156.354 116.982L163.59 120.891L169.88 144.107Z" fill="#EBEBEB"/>
<path d="M156.354 116.982L163.59 120.891L157.833 122.448L156.354 116.982Z" fill="#DBDBDB"/>
<path d="M142.894 125.592L155.379 122.246L155.181 121.505L142.696 124.852L142.894 125.592Z" fill="#DBDBDB"/>
<path d="M143.395 127.439L155.88 124.093L155.682 123.352L143.197 126.699L143.395 127.439Z" fill="#DBDBDB"/>
<path d="M143.902 129.286L156.387 125.939L156.189 125.199L143.703 128.545L143.902 129.286Z" fill="#DBDBDB"/>
<path d="M144.953 132.03L163.155 127.095L162.955 126.358L144.753 131.293L144.953 132.03Z" fill="#DBDBDB"/>
<path d="M144.879 132.984L163.172 128.081L162.974 127.34L144.681 132.243L144.879 132.984Z" fill="#DBDBDB"/>
<path d="M145.386 134.831L163.679 129.927L163.481 129.187L145.188 134.09L145.386 134.831Z" fill="#DBDBDB"/>
<path d="M146.468 137.612L164.669 132.677L164.47 131.94L146.268 136.875L146.468 137.612Z" fill="#DBDBDB"/>
<path d="M146.962 139.471L165.164 134.536L164.964 133.799L146.762 138.734L146.962 139.471Z" fill="#DBDBDB"/>
<path d="M146.897 140.379L165.19 135.476L164.991 134.735L146.698 139.639L146.897 140.379Z" fill="#DBDBDB"/>
<path d="M147.398 142.226L165.691 137.323L165.492 136.582L147.199 141.485L147.398 142.226Z" fill="#DBDBDB"/>
<path d="M147.907 144.079L166.2 139.176L166.001 138.435L147.708 143.338L147.907 144.079Z" fill="#DBDBDB"/>
<path d="M148.414 145.926L166.707 141.023L166.508 140.282L148.215 145.186L148.414 145.926Z" fill="#DBDBDB"/>
<path d="M171.001 145.61L149.864 157.027L134.95 129.417L150.888 120.806L158.899 123.2L171.001 145.61Z" fill="#6167DE"/>
<path opacity="0.6" d="M171.001 145.61L149.864 157.027L134.95 129.417L150.888 120.806L158.899 123.2L171.001 145.61Z" fill="white"/>
<path d="M158.899 123.2L153.7 126.012L150.888 120.806L158.899 123.2Z" fill="#6167DE"/>
<path d="M145.095 136.507C145.262 136.828 145.522 137.092 145.841 137.264C146.159 137.437 146.522 137.51 146.882 137.475C147.243 137.439 147.585 137.297 147.864 137.067C148.143 136.836 148.347 136.527 148.449 136.18C148.552 135.832 148.548 135.462 148.439 135.117C148.33 134.771 148.12 134.467 147.836 134.241C147.553 134.016 147.208 133.881 146.847 133.853C146.486 133.825 146.125 133.905 145.81 134.083C145.399 134.316 145.095 134.699 144.962 135.151C144.829 135.603 144.876 136.089 145.095 136.507Z" fill="#6167DE"/>
<path d="M151.306 142.191L161.996 136.416L153.13 132.78L151.306 142.191Z" fill="#6167DE"/>
<path d="M147.119 144.458L155.942 139.689L149.234 137.822L147.119 144.458Z" fill="#6167DE"/>
<path opacity="0.1" d="M147.119 144.458L155.942 139.689L149.234 137.822L147.119 144.458Z" fill="black"/>
<path d="M146.87 145.276L140.659 133.762L156.603 125.151L162.82 136.665L146.87 145.276ZM142.301 134.259L147.361 143.622L161.196 136.174L156.13 126.799L142.301 134.259Z" fill="#6167DE"/>
<path d="M134.083 141.64C134.083 141.64 136.811 137.865 138.38 136.471C139.95 135.077 147.682 132.035 148.44 133.665C149.409 135.78 145.288 138.416 143.101 139.447C143.101 139.447 145.355 144.331 142.804 146.864C140.253 149.397 134.083 141.64 134.083 141.64Z" fill="#FFC4C0"/>
<path d="M148.518 134.338C148.015 136.901 145.052 138.065 143.004 139.222C142.973 139.239 142.947 139.262 142.927 139.29C142.907 139.319 142.894 139.351 142.889 139.386C142.885 139.42 142.888 139.455 142.9 139.488C142.911 139.52 142.93 139.55 142.955 139.574C143.761 141.683 144.289 144.895 142.955 146.846C142.949 146.857 142.947 146.871 142.949 146.883C142.952 146.896 142.959 146.908 142.969 146.916C142.979 146.924 142.992 146.928 143.005 146.927C143.018 146.927 143.031 146.921 143.04 146.913C144.767 144.991 144.507 141.798 143.47 139.544C145.591 138.392 148.506 137.089 148.549 134.32C148.543 134.326 148.518 134.32 148.518 134.338Z" fill="#263238"/>
<path d="M133.041 141.579L143.622 155.62C143.622 155.62 127.145 164.104 122.145 163.147C119.224 162.589 108.625 149.694 104.48 142.604C102.226 138.762 102.474 135.204 107.025 137.15C111.419 139.052 123.533 147.948 124.515 147.809C125.496 147.67 133.041 141.579 133.041 141.579Z" fill="#6167DE"/>
<path d="M126.254 155.494C125.907 156.486 125.907 157.567 126.254 158.56C126.617 157.57 126.617 156.483 126.254 155.494ZM129.254 149.149C128.73 149.144 128.21 149.237 127.721 149.421C128.21 149.607 128.73 149.697 129.254 149.688C129.775 149.701 130.294 149.61 130.781 149.421C130.295 149.23 129.776 149.138 129.254 149.149ZM121.515 162.196C121.195 162.195 120.877 162.228 120.564 162.293C120.782 162.456 120.988 162.602 121.17 162.717H121.509C122.032 162.727 122.553 162.637 123.042 162.45C122.555 162.264 122.036 162.177 121.515 162.196ZM111.256 147.488C110.893 147.111 110.461 146.806 109.983 146.591C110.425 147.55 111.194 148.319 112.152 148.761C111.933 148.286 111.629 147.854 111.256 147.488ZM138.38 149.234C138.022 148.851 137.588 148.546 137.107 148.337C137.322 148.815 137.624 149.248 137.998 149.615C138.366 149.991 138.802 150.293 139.283 150.506C139.061 150.031 138.755 149.6 138.38 149.234ZM118.521 152.87C118.142 153.231 117.838 153.664 117.625 154.142C118.582 153.696 119.35 152.925 119.794 151.967C119.316 152.185 118.884 152.494 118.521 152.876V152.87ZM134.762 156.39C134.383 156.752 134.079 157.184 133.865 157.663C134.343 157.451 134.775 157.149 135.138 156.772C135.516 156.405 135.82 155.969 136.035 155.487C135.556 155.705 135.123 156.013 134.762 156.396V156.39ZM118.067 143.949C118.087 144.332 118.169 144.708 118.309 145.064C118.413 144.803 118.486 144.53 118.528 144.252L118.067 143.949Z" fill="white"/>
<path d="M139.071 155.833C138.303 155.004 137.589 154.127 136.931 153.209C136.259 152.33 135.598 151.451 134.938 150.567C134.277 149.682 133.659 148.821 133.035 147.937L132.108 146.585L131.605 145.852C131.434 145.564 131.248 145.284 131.047 145.016C131.042 145.012 131.038 145.006 131.036 145C131.033 144.995 131.032 144.988 131.032 144.982C131.032 144.975 131.034 144.969 131.037 144.963C131.04 144.958 131.044 144.953 131.05 144.949C131.055 144.945 131.061 144.943 131.067 144.942C131.074 144.94 131.08 144.941 131.086 144.943C131.092 144.944 131.098 144.947 131.103 144.952C131.108 144.956 131.111 144.961 131.114 144.967C131.296 145.246 131.544 145.482 131.72 145.743L132.241 146.385C132.599 146.828 132.956 147.276 133.308 147.725C133.986 148.597 134.653 149.47 135.307 150.361C135.962 151.251 136.592 152.1 137.222 152.979C137.916 153.871 138.55 154.808 139.119 155.784C139.168 155.827 139.107 155.869 139.071 155.833Z" fill="#263238"/>
<path opacity="0.1" d="M115.516 157.36L115.388 157.214C111.413 152.742 106.856 146.706 104.48 142.61C102.856 139.84 102.535 137.228 104.171 136.713L115.516 157.36Z" fill="black"/>
<path d="M68.7382 172.71C68.7807 172.831 103.086 185.866 103.529 185.63C104.135 185.297 110.407 145.173 108.613 139.247C108.231 137.98 105.844 136.774 103.632 136.217C103.058 136.07 102.471 135.977 101.88 135.938H101.808C101.331 135.898 100.851 135.943 100.39 136.071C92.7358 138.55 81.6036 153.106 78.5736 157.596C73.6347 165.038 68.5746 172.31 68.7382 172.71Z" fill="#6167DE"/>
<path d="M98.6083 162.008C98.2294 162.369 97.9247 162.802 97.7115 163.28C98.1893 163.069 98.6215 162.766 98.984 162.389C99.3602 162.021 99.6643 161.585 99.8809 161.105C99.4033 161.322 98.9714 161.629 98.6083 162.008ZM86.149 176.794C85.7738 177.158 85.4715 177.59 85.2582 178.067C85.7343 177.852 86.1659 177.55 86.5307 177.176C86.9035 176.81 87.2055 176.379 87.4216 175.903C86.9433 176.114 86.511 176.417 86.149 176.794ZM77.3195 160.759C76.9438 161.123 76.6414 161.555 76.4287 162.032C76.9041 161.816 77.3356 161.514 77.7013 161.141C78.0765 160.777 78.3788 160.345 78.5922 159.868C78.116 160.083 77.6844 160.385 77.3195 160.759ZM79.8708 170.286C79.5109 169.906 79.0781 169.603 78.5982 169.395C78.8143 169.87 79.1163 170.302 79.489 170.667C79.8527 171.043 80.2846 171.345 80.7616 171.558C80.5483 171.081 80.246 170.649 79.8708 170.286ZM92.112 146.894C91.7463 146.521 91.3148 146.219 90.8394 146.003C91.0505 146.481 91.3531 146.914 91.7302 147.276C92.0961 147.651 92.53 147.953 93.0089 148.167C92.7898 147.691 92.4859 147.26 92.112 146.894ZM105.68 169.007C105.157 168.996 104.637 169.085 104.147 169.268C104.637 169.453 105.157 169.547 105.68 169.546C105.88 169.546 106.08 169.546 106.286 169.504C106.286 169.352 106.329 169.201 106.353 169.049C106.138 169.021 105.921 169.007 105.705 169.007H105.68ZM101.39 152.039C100.867 152.038 100.348 152.13 99.8567 152.312C100.848 152.667 101.932 152.667 102.923 152.312C102.442 152.122 101.931 152.02 101.414 152.009L101.39 152.039ZM71.1444 173.31C70.8534 173.313 70.5633 173.344 70.2778 173.4L71.4232 173.843C71.8513 173.829 72.2737 173.741 72.6715 173.582C72.1923 173.394 71.6835 173.291 71.1687 173.279L71.1444 173.31ZM89.7486 167.34C89.2271 167.337 88.7094 167.429 88.2215 167.613C89.2015 167.961 90.2715 167.961 91.2515 167.613C90.7807 167.425 90.2799 167.322 89.7729 167.31L89.7486 167.34ZM96.9721 174.006C96.7846 174.495 96.6941 175.016 96.7055 175.54C96.6965 176.065 96.7869 176.587 96.9721 177.079C97.1534 176.586 97.2458 176.065 97.2448 175.54C97.2628 174.999 97.1785 174.461 96.9964 173.952L96.9721 174.006ZM88.5851 156.432C88.3999 156.922 88.3094 157.442 88.3185 157.966C88.3084 158.487 88.399 159.006 88.5851 159.493C88.7731 159.006 88.8657 158.487 88.8578 157.966C88.8835 157.415 88.799 156.865 88.6093 156.348L88.5851 156.432ZM106.923 157.966C106.566 158.944 106.566 160.017 106.923 160.996C107.271 160.016 107.271 158.946 106.923 157.966ZM101.935 139.889C101.58 140.882 101.58 141.968 101.935 142.961C102.299 141.969 102.299 140.881 101.935 139.889Z" fill="white"/>
<path d="M106.535 143.173C104.65 143.107 102.02 139.234 101.42 136.713C101.384 136.538 102.026 135.016 102.765 133.126C103.202 131.98 103.656 130.702 103.977 129.49L111.037 133.398C110.193 134.788 109.521 136.276 109.037 137.828C108.995 137.995 108.967 138.166 108.953 138.337C108.958 138.365 108.958 138.394 108.953 138.422C108.843 139.38 108.359 143.234 106.535 143.173Z" fill="#FFC4C0"/>
<path d="M104.232 129.623C103.971 131.247 103.468 136.792 108.165 138.246C108.422 138.326 108.685 138.383 108.952 138.416C108.952 138.38 108.952 138.356 108.952 138.331C108.962 138.159 108.988 137.989 109.031 137.822C109.515 136.272 110.186 134.786 111.031 133.398L104.232 129.623Z" fill="#263238"/>
<path d="M113.425 119.206C113.425 119.206 115.794 120.212 116.212 122.63C116.631 125.048 116.067 127.569 115.855 127.69C115.643 127.811 113.425 119.206 113.425 119.206Z" fill="#263238"/>
<path d="M102.899 122.193C102.075 124.981 103.608 132.998 105.596 134.768C108.48 137.343 113.177 137.556 115.352 134.089C117.467 130.732 115.286 120.321 113.062 118.709C109.789 116.352 104.117 118.079 102.899 122.193Z" fill="#FFC4C0"/>
<path d="M110.589 127.351C110.589 127.351 110.552 127.351 110.558 127.405C110.68 127.938 110.722 128.575 110.268 128.847C110.855 128.684 110.789 127.866 110.589 127.351Z" fill="#263238"/>
<path d="M110.007 126.872C109.122 126.969 109.401 128.727 110.195 128.636C110.989 128.545 110.74 126.793 110.007 126.872Z" fill="#263238"/>
<path d="M113.928 126.787C113.928 126.787 113.976 126.787 113.976 126.83C114.043 127.375 114.207 127.993 114.722 128.102V128.132C114.098 128.132 113.891 127.314 113.928 126.787Z" fill="#263238"/>
<path d="M114.322 126.151C115.188 125.957 115.534 127.702 114.71 127.878C113.885 128.054 113.595 126.314 114.322 126.151Z" fill="#263238"/>
<path d="M109.195 126.175C109.425 126.078 109.619 125.951 109.837 125.836C110.085 125.748 110.298 125.582 110.443 125.363C110.473 125.285 110.477 125.2 110.454 125.12C110.431 125.041 110.382 124.97 110.316 124.921C110.17 124.843 110.006 124.805 109.841 124.813C109.675 124.82 109.515 124.872 109.377 124.963C109.066 125.101 108.818 125.349 108.68 125.66C108.655 125.732 108.652 125.809 108.669 125.883C108.686 125.957 108.724 126.024 108.777 126.078C108.831 126.131 108.898 126.169 108.972 126.186C109.046 126.203 109.123 126.199 109.195 126.175Z" fill="#263238"/>
<path d="M114.873 125.169C114.625 125.169 114.394 125.115 114.146 125.084C113.888 125.094 113.634 125.017 113.425 124.866C113.368 124.806 113.332 124.729 113.323 124.647C113.315 124.565 113.333 124.482 113.376 124.412C113.484 124.286 113.624 124.192 113.78 124.137C113.936 124.083 114.104 124.071 114.267 124.103C114.606 124.118 114.928 124.258 115.17 124.497C115.221 124.555 115.254 124.626 115.265 124.702C115.277 124.779 115.266 124.857 115.235 124.927C115.204 124.998 115.154 125.058 115.089 125.101C115.025 125.144 114.95 125.168 114.873 125.169Z" fill="#263238"/>
<path d="M111.177 130.575C111.345 130.771 111.553 130.929 111.787 131.04C112.021 131.151 112.275 131.211 112.534 131.217C112.758 131.228 112.983 131.205 113.201 131.15H113.328L113.443 131.114C113.471 131.104 113.495 131.084 113.512 131.059C113.528 131.034 113.536 131.004 113.534 130.975C113.537 130.954 113.537 130.934 113.534 130.914V130.865C113.479 130.447 113.346 129.811 113.346 129.811C113.51 129.866 114.346 130.108 114.298 129.89C113.974 128.009 113.46 126.165 112.764 124.387C112.764 124.374 112.759 124.362 112.75 124.353C112.741 124.344 112.729 124.339 112.716 124.339C112.703 124.339 112.691 124.344 112.682 124.353C112.672 124.362 112.667 124.374 112.667 124.387C112.952 126.127 113.546 127.805 113.879 129.544C113.582 129.457 113.274 129.41 112.964 129.405C112.91 129.435 113.249 130.617 113.255 130.811C112.917 130.895 112.565 130.911 112.22 130.857C111.876 130.803 111.546 130.68 111.249 130.496C111.171 130.496 111.134 130.538 111.177 130.575Z" fill="#263238"/>
<path d="M104.668 128.72C104.668 128.72 102.777 126.175 101.638 126.86C100.499 127.544 101.947 131.259 103.347 131.708C103.522 131.781 103.709 131.818 103.899 131.817C104.088 131.816 104.275 131.776 104.449 131.701C104.623 131.626 104.779 131.516 104.91 131.379C105.04 131.241 105.141 131.079 105.207 130.902L104.668 128.72Z" fill="#FFC4C0"/>
<path d="M103.844 128.629C105.244 128.345 105.056 124.763 105.056 124.763C105.056 124.763 106.771 123.994 107.122 120.703C107.122 120.703 108.528 123.83 114.352 122.739C114.47 121.691 114.258 120.631 113.746 119.709C114.392 120.682 114.956 121.708 115.431 122.776C115.431 122.776 116.521 117.806 112.243 116.358C110.546 115.782 108.037 116.085 104.365 118.224C104.365 118.224 103.48 115.982 103.062 116.31C102.644 116.637 103.626 118.734 103.626 118.734C103.626 118.734 101.911 118.321 101.65 118.691C101.39 119.061 103.02 119.321 103.02 119.321C102.285 119.64 101.69 120.212 101.342 120.932C100.994 121.653 100.916 122.475 101.123 123.248C101.68 125.939 103.153 128.769 103.844 128.629Z" fill="#263238"/>
<path d="M103.468 119.249C102.725 119.27 102.015 119.564 101.474 120.074C100.933 120.585 100.599 121.277 100.535 122.018C100.512 122.885 100.688 123.745 101.05 124.533C101.417 125.359 101.888 126.134 102.45 126.842C102.481 126.884 102.541 126.842 102.505 126.787C102.015 126.12 101.629 125.382 101.359 124.6C101.066 123.862 100.89 123.083 100.838 122.291C100.827 121.557 101.093 120.846 101.583 120.299C102.072 119.752 102.75 119.409 103.48 119.339C103.529 119.333 103.517 119.249 103.468 119.249Z" fill="#263238"/>
<path d="M108.807 115.746C107.822 116.037 106.879 116.454 106.002 116.988C105.147 117.462 104.379 118.077 103.729 118.806C103.729 118.849 103.729 118.897 103.784 118.867C105.238 117.694 106.893 116.794 108.668 116.212C110.292 115.606 112.243 115.503 113.595 116.77C113.595 116.77 113.649 116.77 113.625 116.734C112.413 115.413 110.45 115.303 108.807 115.746Z" fill="#263238"/>
<path d="M94.4145 139.84C86.7607 145.9 70.0048 160.026 72.3439 165.044C76.192 173.297 88.5241 183.066 92.5359 185.648C94.263 186.751 104.929 174.934 103.444 173.297C101.693 171.334 89.5059 162.068 89.6452 161.39C89.7846 160.711 95.0083 151.966 97.9535 144.791C101.626 135.859 97.6141 137.301 94.4145 139.84Z" fill="#FFC4C0"/>
<path d="M100.85 171.498C100.85 171.498 106.347 175.419 109.94 177.394C111.958 178.503 115.243 180.703 116.358 182.194C118.018 184.418 123.539 194.793 121.054 196.186C118.8 197.447 115.188 187.933 115.188 187.933C115.188 187.933 119.685 197.211 116.691 198.235C113.698 199.259 111.049 187.933 111.049 187.933C111.049 187.933 115.455 197.574 112.207 198.138C109.753 198.562 106.753 188.442 106.753 188.442C106.753 188.442 110.48 196.756 107.965 197.302C105.195 197.908 101.862 188.763 101.862 188.763C95.257 189.078 91.5604 184.733 89.4212 182.636C88.9607 182.176 100.85 171.498 100.85 171.498Z" fill="#FFC4C0"/>
<path d="M114.128 185.163C116.285 189.132 117.516 193.647 117.697 195.514C117.697 195.744 117.734 195.944 117.734 195.932C116.994 193.611 114.552 186.296 114.098 185.175C114.073 185.151 114.116 185.139 114.128 185.163Z" fill="#263238"/>
<path d="M109.789 186.242C111.855 189.011 112.819 193.259 113.316 194.726C113.358 194.841 113.286 194.823 113.243 194.726C112.68 193.29 110.383 187.684 109.759 186.278C109.747 186.23 109.777 186.224 109.789 186.242Z" fill="#263238"/>
<path d="M106.207 187.363C107.434 189.267 108.245 191.408 108.589 193.647C108.589 193.768 108.528 193.732 108.486 193.617C107.686 191.393 107.232 189.981 106.135 187.405C106.117 187.363 106.177 187.32 106.207 187.363Z" fill="#263238"/>
<path d="M103.935 172.51L90.9845 187.43C90.9845 187.43 71.9077 169.092 71.841 164.038C71.7743 158.984 90.0816 142.064 95.0629 138.968C100.044 135.871 100.79 137.925 99.3049 142.664C97.8202 147.403 89.918 161.196 89.9301 161.487C89.9422 161.778 103.935 172.51 103.935 172.51Z" fill="#6167DE"/>
<path d="M88.6092 156.348C88.424 156.837 88.3335 157.358 88.3426 157.881C88.3325 158.402 88.4231 158.921 88.6092 159.408C88.7973 158.921 88.8898 158.403 88.8819 157.881C88.8888 157.357 88.7963 156.837 88.6092 156.348ZM96.9962 173.922C96.8087 174.411 96.7182 174.932 96.7296 175.455C96.7206 175.98 96.811 176.503 96.9962 176.994C97.1775 176.501 97.2699 175.98 97.2689 175.455C97.2687 174.942 97.1763 174.433 96.9962 173.952V173.922ZM89.7727 167.256C89.2512 167.252 88.7335 167.345 88.2456 167.529C89.2256 167.877 90.2956 167.877 91.2756 167.529C90.7918 167.366 90.2827 167.292 89.7727 167.31V167.256ZM81.519 150.761L81.0645 151.221C81.4801 151.206 81.89 151.12 82.2765 150.967C82.0312 150.885 81.7768 150.834 81.519 150.815V150.761ZM92.1119 146.894C91.7461 146.521 91.3147 146.219 90.8393 146.003C91.0503 146.482 91.353 146.914 91.7301 147.276C92.096 147.651 92.5299 147.954 93.0088 148.167C92.7897 147.692 92.4857 147.26 92.1119 146.894ZM79.8707 170.286C79.5108 169.906 79.0779 169.603 78.5981 169.395C78.8142 169.87 79.1162 170.302 79.4889 170.668C79.8526 171.043 80.2845 171.345 80.7615 171.558C80.5482 171.081 80.2458 170.65 79.8707 170.286ZM92.5967 183.666C92.2347 183.289 91.8023 182.987 91.3241 182.775C91.5389 183.252 91.8411 183.683 92.2149 184.048C92.5209 184.358 92.8724 184.62 93.2572 184.824L93.3663 184.703C93.1618 184.318 92.8956 183.97 92.5785 183.672L92.5967 183.666ZM77.3376 160.753C76.9619 161.117 76.6594 161.549 76.4468 162.026C76.9222 161.81 77.3536 161.508 77.7194 161.135C78.0945 160.772 78.3969 160.34 78.6102 159.863C78.1271 160.077 77.6891 160.382 77.3194 160.76L77.3376 160.753ZM86.167 176.788C85.7919 177.152 85.4895 177.584 85.2762 178.061C85.7523 177.846 86.184 177.544 86.5488 177.17C86.9215 176.804 87.2235 176.373 87.4396 175.897C86.9543 176.108 86.5156 176.413 86.1488 176.794L86.167 176.788Z" fill="white"/>
<path d="M104.232 172.437C104.299 172.352 90.8999 161.996 90.0818 161.293C91.3666 159.257 92.5059 157.118 93.627 154.991C93.9906 154.3 94.342 153.609 94.6935 152.912C94.9238 152.615 95.1541 152.306 95.3722 152.003C95.7358 151.458 96.0752 150.9 96.3903 150.324H96.3479C95.9722 150.858 95.5904 151.391 95.2207 151.93L95.1844 151.985C95.2151 151.914 95.2494 151.846 95.2874 151.779C95.548 151.258 95.8025 150.736 96.051 150.209L96.4024 149.44C96.4734 149.267 96.5544 149.099 96.6448 148.937C96.7721 148.718 96.6448 148.828 96.7903 148.525C96.7903 148.494 96.7539 148.476 96.7357 148.525C96.4812 148.961 96.6751 148.525 96.457 149.015C96.3964 149.143 96.3115 149.264 96.2449 149.391C96.1116 149.64 95.9782 149.888 95.8388 150.137L94.9723 151.773C94.4188 152.819 93.8613 153.865 93.2997 154.912C92.1423 157.039 90.9242 159.154 89.8031 161.281C89.7882 161.302 89.7803 161.328 89.7803 161.354C89.7803 161.38 89.7882 161.405 89.8031 161.426C89.8026 161.442 89.8056 161.458 89.8119 161.473C89.8181 161.487 89.8276 161.501 89.8395 161.511C90.6515 162.232 103.111 172.013 103.838 172.619L103.608 172.898C103.523 173.019 103.432 173.128 103.347 173.243C103.262 173.358 103.347 173.352 103.408 173.31C103.468 173.268 103.608 173.086 103.699 172.971C103.889 172.805 104.067 172.627 104.232 172.437Z" fill="#263238"/>
<path d="M93.9299 177.006C94.8389 175.976 98.5173 171.892 99.5051 170.946C99.5051 170.946 99.5536 170.946 99.5415 170.946C98.7718 172.031 95.2631 176.17 94.348 177.206C92.5803 179.311 90.6989 181.318 88.7122 183.218C88.6759 183.248 88.6092 183.218 88.6395 183.163C90.2454 181.012 92.1119 179.036 93.9299 177.006Z" fill="#263238"/>
<path d="M82.1068 178.321C81.6766 177.843 81.2948 177.309 80.8948 176.812L79.6828 175.31C78.8647 174.334 78.0648 173.34 77.2588 172.346C76.4528 171.352 75.6893 170.34 74.9075 169.316C74.5136 168.807 74.1258 168.292 73.738 167.771C73.3787 167.23 72.9732 166.721 72.526 166.25C72.5191 166.245 72.5108 166.242 72.5023 166.242C72.4938 166.241 72.4853 166.244 72.4781 166.248C72.4709 166.253 72.4653 166.26 72.4619 166.267C72.4586 166.275 72.4576 166.284 72.4593 166.292C72.7418 166.832 73.0789 167.342 73.4653 167.813C73.841 168.341 74.2228 168.868 74.6045 169.389C75.3742 170.431 76.1619 171.455 76.974 172.473C77.786 173.492 78.6041 174.485 79.4344 175.503C79.8525 175.994 80.2827 176.485 80.7191 176.964C81.1554 177.443 81.622 177.897 82.0462 178.388C82.0506 178.392 82.0557 178.395 82.0613 178.397C82.0668 178.399 82.0727 178.4 82.0787 178.4C82.0846 178.399 82.0904 178.398 82.0957 178.395C82.1011 178.393 82.1059 178.389 82.1098 178.385C82.1138 178.381 82.1169 178.376 82.1189 178.37C82.1209 178.364 82.1218 178.358 82.1215 178.353C82.1212 178.347 82.1198 178.341 82.1173 178.336C82.1147 178.33 82.1112 178.325 82.1068 178.321Z" fill="#263238"/>
<path d="M191.654 196.641H98.5781V264.246H191.654V196.641Z" fill="#6167DE"/>
<path d="M157.057 189.642H191.611L191.617 196.641H155.082L157.057 189.642Z" fill="#6167DE"/>
<g opacity="0.2">
<path d="M191.654 196.641H98.5781V264.246H191.654V196.641Z" fill="black"/>
<path d="M157.057 189.642H191.611L191.617 196.641H155.082L157.057 189.642Z" fill="black"/>
</g>
<path d="M136.265 202.889L111.65 207.512L105.711 175.909L123.988 172.479L131.454 177.303L136.265 202.889Z" fill="#EBEBEB"/>
<path d="M123.988 172.479L131.454 177.303L125.115 178.497L123.988 172.479Z" fill="#DBDBDB"/>
<path d="M109.267 181.566L122.954 178.995L122.801 178.185L109.115 180.756L109.267 181.566Z" fill="#DBDBDB"/>
<path d="M109.648 183.618L123.334 181.047L123.182 180.237L109.495 182.808L109.648 183.618Z" fill="#DBDBDB"/>
<path d="M110.039 185.663L123.726 183.092L123.573 182.282L109.887 184.853L110.039 185.663Z" fill="#DBDBDB"/>
<path d="M110.427 187.708L130.48 183.941L130.328 183.131L110.275 186.898L110.427 187.708Z" fill="#DBDBDB"/>
<path d="M110.807 189.754L130.86 185.987L130.708 185.177L110.655 188.944L110.807 189.754Z" fill="#DBDBDB"/>
<path d="M111.193 191.799L131.246 188.032L131.094 187.222L111.041 190.989L111.193 191.799Z" fill="#DBDBDB"/>
<path d="M111.58 193.857L131.633 190.09L131.481 189.28L111.428 193.047L111.58 193.857Z" fill="#DBDBDB"/>
<path d="M119.746 198.023L118.964 198.168L119.461 200.786C119.468 200.822 119.468 200.859 119.46 200.895C119.452 200.93 119.438 200.964 119.417 200.994C119.396 201.024 119.369 201.05 119.338 201.069C119.307 201.088 119.273 201.101 119.237 201.107C119.202 201.114 119.165 201.114 119.13 201.107C119.095 201.1 119.062 201.085 119.033 201.065C119.003 201.045 118.978 201.019 118.959 200.988C118.94 200.958 118.927 200.924 118.922 200.889L118.425 198.271L117.649 198.417C117.577 198.427 117.503 198.41 117.444 198.369C117.384 198.327 117.342 198.264 117.328 198.192C117.321 198.157 117.321 198.12 117.329 198.084C117.336 198.048 117.351 198.014 117.372 197.984C117.393 197.954 117.419 197.929 117.45 197.91C117.481 197.89 117.516 197.877 117.552 197.871L119.643 197.477C119.678 197.47 119.715 197.47 119.75 197.478C119.785 197.485 119.819 197.499 119.849 197.519C119.879 197.54 119.904 197.566 119.924 197.596C119.944 197.626 119.957 197.66 119.964 197.696C119.977 197.768 119.961 197.842 119.92 197.903C119.88 197.964 119.817 198.007 119.746 198.023Z" fill="#DBDBDB"/>
<path d="M123.273 197.277L122.576 198.719L123.745 199.816C123.771 199.842 123.791 199.872 123.805 199.905C123.819 199.938 123.826 199.974 123.826 200.01C123.826 200.046 123.819 200.082 123.805 200.115C123.791 200.148 123.771 200.179 123.745 200.204C123.706 200.246 123.655 200.275 123.6 200.289C123.557 200.296 123.512 200.293 123.47 200.28C123.428 200.268 123.39 200.246 123.357 200.216L122.321 199.234L121.715 200.525C121.698 200.564 121.671 200.599 121.637 200.625C121.603 200.652 121.563 200.669 121.521 200.677C121.469 200.698 121.41 200.698 121.358 200.677C121.324 200.663 121.295 200.643 121.27 200.617C121.245 200.591 121.226 200.56 121.213 200.527C121.201 200.493 121.195 200.458 121.197 200.422C121.199 200.386 121.208 200.351 121.224 200.319L121.915 198.865L120.746 197.774C120.72 197.749 120.7 197.719 120.686 197.687C120.672 197.654 120.665 197.619 120.665 197.583C120.665 197.547 120.672 197.512 120.686 197.479C120.7 197.447 120.72 197.417 120.746 197.392C120.77 197.366 120.799 197.345 120.832 197.331C120.865 197.316 120.901 197.309 120.936 197.309C120.972 197.309 121.008 197.316 121.041 197.331C121.073 197.345 121.103 197.366 121.127 197.392L122.17 198.368L122.776 197.083C122.79 197.05 122.811 197.02 122.837 196.995C122.864 196.97 122.895 196.951 122.929 196.938C122.963 196.926 122.999 196.92 123.035 196.922C123.071 196.924 123.107 196.934 123.139 196.95C123.197 196.98 123.242 197.029 123.266 197.089C123.29 197.149 123.293 197.216 123.273 197.277Z" fill="#DBDBDB"/>
<path d="M126.473 196.756L125.691 196.902L126.182 199.525C126.189 199.561 126.189 199.597 126.181 199.633C126.174 199.668 126.16 199.702 126.14 199.732C126.119 199.762 126.093 199.787 126.063 199.807C126.033 199.827 125.999 199.84 125.963 199.847C125.892 199.859 125.819 199.843 125.759 199.803C125.699 199.762 125.657 199.699 125.642 199.629L125.151 197.005L124.376 197.15C124.307 197.156 124.238 197.137 124.182 197.095C124.127 197.053 124.089 196.992 124.076 196.924C124.063 196.856 124.076 196.785 124.113 196.726C124.149 196.667 124.206 196.624 124.273 196.605L126.37 196.211C126.439 196.204 126.508 196.224 126.563 196.266C126.618 196.307 126.656 196.368 126.669 196.436C126.682 196.505 126.669 196.575 126.633 196.634C126.596 196.693 126.539 196.737 126.473 196.756Z" fill="#DBDBDB"/>
<path d="M159.65 206.78L134.361 200.775L142.203 167.742L161.268 172.269L166.013 179.965L159.65 206.78Z" fill="#6167DE"/>
<path opacity="0.6" d="M159.65 206.78L134.361 200.775L142.203 167.742L161.268 172.269L166.013 179.965L159.65 206.78Z" fill="white"/>
<path d="M166.013 179.965L159.795 178.492L161.268 172.269L166.013 179.965Z" fill="#6167DE"/>
<path d="M145.288 180.771C145.2 181.144 145.226 181.535 145.361 181.894C145.496 182.253 145.735 182.564 146.047 182.788C146.359 183.011 146.73 183.137 147.113 183.149C147.497 183.162 147.875 183.06 148.201 182.858C148.526 182.655 148.785 182.36 148.943 182.011C149.101 181.661 149.152 181.272 149.089 180.894C149.026 180.516 148.853 180.164 148.59 179.884C148.328 179.605 147.988 179.409 147.615 179.322C147.367 179.263 147.109 179.254 146.858 179.295C146.606 179.335 146.365 179.426 146.149 179.561C145.932 179.695 145.745 179.872 145.597 180.079C145.449 180.287 145.344 180.522 145.288 180.771Z" fill="#6167DE"/>
<path d="M146.209 189.837L158.996 192.873L154.457 183.546L146.209 189.837Z" fill="#6167DE"/>
<path d="M141.191 188.649L151.754 191.158L147.681 184.819L141.191 188.649Z" fill="#6167DE"/>
<path opacity="0.1" d="M141.191 188.649L151.754 191.158L147.681 184.819L141.191 188.649Z" fill="black"/>
<path d="M159.45 193.618L140.464 189.109L143.706 175.438L162.71 179.935L159.45 193.618ZM141.924 188.212L158.547 192.158L161.231 180.844L144.609 176.898L141.924 188.212Z" fill="#6167DE"/>
<path d="M144.039 196.254C144.117 195.917 144.29 195.609 144.537 195.366C144.783 195.123 145.094 194.956 145.433 194.884C145.772 194.812 146.124 194.839 146.448 194.96C146.772 195.081 147.055 195.293 147.263 195.569C147.288 195.598 147.307 195.632 147.318 195.668C147.33 195.704 147.334 195.742 147.331 195.78C147.327 195.818 147.316 195.855 147.298 195.888C147.281 195.922 147.256 195.951 147.227 195.975C147.165 196.019 147.09 196.039 147.014 196.03C146.939 196.021 146.87 195.984 146.821 195.927C146.642 195.704 146.395 195.547 146.118 195.478C145.956 195.436 145.788 195.428 145.623 195.454C145.459 195.48 145.301 195.54 145.16 195.63C145.018 195.71 144.894 195.818 144.796 195.949C144.698 196.079 144.628 196.229 144.591 196.387C144.557 196.545 144.554 196.707 144.583 196.865C144.612 197.023 144.672 197.174 144.76 197.309C144.848 197.45 144.963 197.573 145.098 197.669C145.233 197.766 145.386 197.835 145.548 197.872C145.781 197.933 146.025 197.933 146.257 197.872L146.415 197.206L145.742 197.012C145.669 196.994 145.606 196.949 145.566 196.885C145.527 196.822 145.514 196.745 145.53 196.672C145.538 196.636 145.553 196.601 145.574 196.571C145.596 196.541 145.623 196.515 145.655 196.496C145.687 196.477 145.722 196.464 145.759 196.459C145.796 196.454 145.834 196.456 145.869 196.466L146.827 196.69C146.864 196.698 146.898 196.713 146.929 196.735C146.96 196.756 146.986 196.783 147.006 196.815C147.027 196.846 147.041 196.882 147.047 196.918C147.054 196.955 147.053 196.993 147.045 197.03L146.791 198.108L146.754 198.187C146.727 198.233 146.684 198.267 146.633 198.284C146.254 198.461 145.826 198.501 145.421 198.399C144.955 198.295 144.549 198.011 144.291 197.61C144.032 197.208 143.942 196.721 144.039 196.254Z" fill="#6167DE"/>
<path d="M148.511 195.848C148.518 195.813 148.533 195.779 148.553 195.749C148.574 195.719 148.6 195.694 148.631 195.675C148.661 195.656 148.696 195.643 148.731 195.637C148.767 195.631 148.804 195.633 148.839 195.642C148.91 195.659 148.972 195.704 149.012 195.766C149.051 195.828 149.065 195.903 149.051 195.975L148.366 198.842C148.357 198.877 148.342 198.91 148.321 198.939C148.299 198.968 148.272 198.993 148.241 199.012C148.21 199.03 148.176 199.042 148.14 199.048C148.104 199.053 148.068 199.051 148.033 199.042C147.997 199.035 147.964 199.02 147.934 199C147.904 198.979 147.879 198.953 147.859 198.922C147.84 198.892 147.827 198.857 147.822 198.822C147.816 198.786 147.818 198.75 147.827 198.714L148.511 195.848Z" fill="#6167DE"/>
<path d="M149.275 199.072L149.96 196.211C149.967 196.176 149.981 196.142 150.002 196.112C150.022 196.083 150.048 196.057 150.079 196.038C150.11 196.019 150.144 196.006 150.18 196C150.215 195.995 150.252 195.996 150.287 196.005L151.856 196.375C151.927 196.394 151.988 196.439 152.026 196.501C152.064 196.563 152.077 196.637 152.063 196.708C152.045 196.78 152.001 196.841 151.938 196.88C151.876 196.918 151.801 196.931 151.729 196.914L150.414 196.605L150.202 197.49L151.335 197.763C151.405 197.78 151.465 197.824 151.503 197.885C151.54 197.947 151.552 198.02 151.535 198.09C151.519 198.161 151.476 198.223 151.415 198.263C151.354 198.302 151.28 198.317 151.208 198.302L150.075 198.029L149.796 199.199C149.788 199.234 149.772 199.267 149.751 199.296C149.729 199.326 149.702 199.35 149.671 199.369C149.64 199.387 149.606 199.4 149.57 199.405C149.534 199.41 149.498 199.408 149.463 199.399C149.396 199.378 149.34 199.333 149.305 199.272C149.27 199.211 149.26 199.14 149.275 199.072Z" fill="#6167DE"/>
<path d="M166.929 216.954L151.724 197.053L177.279 177.528L188.569 192.308L187.611 201.156L166.929 216.954Z" fill="#EBEBEB"/>
<path d="M188.569 192.308L187.612 201.156L183.697 196.029L188.569 192.308Z" fill="#DBDBDB"/>
<path d="M173.805 183.247L182.26 194.313L182.915 193.813L174.46 182.747L173.805 183.247Z" fill="#DBDBDB"/>
<path d="M172.145 184.511L180.599 195.577L181.254 195.077L172.8 184.011L172.145 184.511Z" fill="#DBDBDB"/>
<path d="M170.489 185.778L178.944 196.844L179.599 196.344L171.144 185.278L170.489 185.778Z" fill="#DBDBDB"/>
<path d="M168.839 187.046L181.226 203.26L181.881 202.759L169.494 186.546L168.839 187.046Z" fill="#DBDBDB"/>
<path d="M167.184 188.307L179.571 204.521L180.226 204.02L167.838 187.807L167.184 188.307Z" fill="#DBDBDB"/>
<path d="M165.523 189.572L177.91 205.785L178.565 205.285L166.178 189.071L165.523 189.572Z" fill="#DBDBDB"/>
<path d="M163.868 190.838L176.255 207.052L176.91 206.551L164.523 190.338L163.868 190.838Z" fill="#DBDBDB"/>
<path d="M162.216 192.104L174.603 208.317L175.258 207.817L162.871 191.603L162.216 192.104Z" fill="#DBDBDB"/>
<path d="M160.56 193.365L172.947 209.578L173.602 209.078L161.215 192.864L160.56 193.365Z" fill="#DBDBDB"/>
<path d="M158.9 194.635L171.287 210.849L171.942 210.348L159.555 194.135L158.9 194.635Z" fill="#DBDBDB"/>
<path d="M157.248 195.901L169.635 212.114L170.29 211.614L157.903 195.4L157.248 195.901Z" fill="#DBDBDB"/>
<path d="M155.593 197.161L167.98 213.375L168.635 212.875L156.248 196.661L155.593 197.161Z" fill="#DBDBDB"/>
<path d="M98.5479 264.246H191.617L203.246 202.252H110.177L98.5479 264.246Z" fill="#6167DE"/>
<path d="M169.898 195.829H204.453L203.247 202.252H166.711L169.898 195.829Z" fill="#6167DE"/>
</svg>
