<svg width="35" height="35" viewBox="0 0 35 35" fill="none" xmlns="http://www.w3.org/2000/svg">
<path d="M18.8049 9.5563L15.8882 3.72296C15.7671 3.48054 15.5808 3.27667 15.3502 3.13422C15.1197 2.99177 14.854 2.91638 14.583 2.9165H2.91634C2.52957 2.9165 2.15863 3.07015 1.88514 3.34364C1.61165 3.61713 1.45801 3.98806 1.45801 4.37484V10.2082C1.45801 10.5949 1.61165 10.9659 1.88514 11.2394C2.15863 11.5129 2.52957 11.6665 2.91634 11.6665H17.4997C17.7482 11.6664 17.9925 11.6027 18.2095 11.4817C18.4265 11.3606 18.6089 11.1861 18.7395 10.9747C18.8701 10.7633 18.9446 10.522 18.9558 10.2738C18.9669 10.0256 18.9145 9.77858 18.8034 9.5563H18.8049Z" fill="#6167DE"/>
<path d="M32.083 8.75H1.45801V30.625C1.45801 31.0118 1.61165 31.3827 1.88514 31.6562C2.15863 31.9297 2.52957 32.0833 2.91634 32.0833H32.083C32.4698 32.0833 32.8407 31.9297 33.1142 31.6562C33.3877 31.3827 33.5413 31.0118 33.5413 30.625V10.2083C33.5413 9.82156 33.3877 9.45063 33.1142 9.17714C32.8407 8.90365 32.4698 8.75 32.083 8.75Z" fill="#4294FF"/>
</svg>
