<svg width="25" height="25" viewBox="0 0 25 25" fill="none" xmlns="http://www.w3.org/2000/svg">
<path d="M6.25 3.75C5.58696 3.75 4.95107 4.01339 4.48223 4.48223C4.01339 4.95107 3.75 5.58696 3.75 6.25V8.75C3.75 9.41304 4.01339 10.0489 4.48223 10.5178C4.95107 10.9866 5.58696 11.25 6.25 11.25H8.75C9.41304 11.25 10.0489 10.9866 10.5178 10.5178C10.9866 10.0489 11.25 9.41304 11.25 8.75V6.25C11.25 5.58696 10.9866 4.95107 10.5178 4.48223C10.0489 4.01339 9.41304 3.75 8.75 3.75H6.25ZM6.25 13.75C5.58696 13.75 4.95107 14.0134 4.48223 14.4822C4.01339 14.9511 3.75 15.587 3.75 16.25V18.75C3.75 19.413 4.01339 20.0489 4.48223 20.5178C4.95107 20.9866 5.58696 21.25 6.25 21.25H8.75C9.41304 21.25 10.0489 20.9866 10.5178 20.5178C10.9866 20.0489 11.25 19.413 11.25 18.75V16.25C11.25 15.587 10.9866 14.9511 10.5178 14.4822C10.0489 14.0134 9.41304 13.75 8.75 13.75H6.25ZM13.75 6.25C13.75 5.58696 14.0134 4.95107 14.4822 4.48223C14.9511 4.01339 15.587 3.75 16.25 3.75H18.75C19.413 3.75 20.0489 4.01339 20.5178 4.48223C20.9866 4.95107 21.25 5.58696 21.25 6.25V8.75C21.25 9.41304 20.9866 10.0489 20.5178 10.5178C20.0489 10.9866 19.413 11.25 18.75 11.25H16.25C15.587 11.25 14.9511 10.9866 14.4822 10.5178C14.0134 10.0489 13.75 9.41304 13.75 8.75V6.25ZM13.75 16.25C13.75 15.587 14.0134 14.9511 14.4822 14.4822C14.9511 14.0134 15.587 13.75 16.25 13.75H18.75C19.413 13.75 20.0489 14.0134 20.5178 14.4822C20.9866 14.9511 21.25 15.587 21.25 16.25V18.75C21.25 19.413 20.9866 20.0489 20.5178 20.5178C20.0489 20.9866 19.413 21.25 18.75 21.25H16.25C15.587 21.25 14.9511 20.9866 14.4822 20.5178C14.0134 20.0489 13.75 19.413 13.75 18.75V16.25Z" fill="#68D9A3"/>
</svg>
