<svg width="25" height="25" viewBox="0 0 25 25" fill="none" xmlns="http://www.w3.org/2000/svg">
<path d="M8.20801 4.125C8.20801 3.57272 8.65572 3.125 9.20801 3.125H15.5413C16.0936 3.125 16.5413 3.57272 16.5413 4.125V5.25C16.5413 5.80228 16.0936 6.25 15.5413 6.25H9.20801C8.65572 6.25 8.20801 5.80228 8.20801 5.25V4.125ZM8.20801 11.9375C8.20801 11.3852 8.65572 10.9375 9.20801 10.9375H17.6247C18.177 10.9375 18.6247 11.3852 18.6247 11.9375V13.0625C18.6247 13.6148 18.177 14.0625 17.6247 14.0625H9.20801C8.65572 14.0625 8.20801 13.6148 8.20801 13.0625V11.9375ZM8.20801 19.75C8.20801 19.1977 8.65572 18.75 9.20801 18.75H20.7497C21.302 18.75 21.7497 19.1977 21.7497 19.75V20.875C21.7497 21.4273 21.302 21.875 20.7497 21.875H9.20801C8.65572 21.875 8.20801 21.4273 8.20801 20.875V19.75Z" fill="#68D9A3"/>
<path d="M4.16667 5.72933C4.74196 5.72933 5.20833 5.26296 5.20833 4.68766C5.20833 4.11237 4.74196 3.646 4.16667 3.646C3.59137 3.646 3.125 4.11237 3.125 4.68766C3.125 5.26296 3.59137 5.72933 4.16667 5.72933Z" fill="#68D9A3" stroke="#68D9A3"/>
<path d="M4.16667 13.8128C4.74196 13.8128 5.20833 13.3465 5.20833 12.7712C5.20833 12.1959 4.74196 11.7295 4.16667 11.7295C3.59137 11.7295 3.125 12.1959 3.125 12.7712C3.125 13.3465 3.59137 13.8128 4.16667 13.8128Z" fill="#68D9A3" stroke="#68D9A3"/>
<path d="M4.16667 21.8963C4.74196 21.8963 5.20833 21.43 5.20833 20.8547C5.20833 20.2794 4.74196 19.813 4.16667 19.813C3.59137 19.813 3.125 20.2794 3.125 20.8547C3.125 21.43 3.59137 21.8963 4.16667 21.8963Z" fill="#68D9A3" stroke="#68D9A3"/>
</svg>
