<svg width="24" height="25" viewBox="0 0 24 25" fill="none" xmlns="http://www.w3.org/2000/svg">
<path d="M10.7998 18.7998C10.7998 18.402 10.9578 18.0204 11.2391 17.7391C11.5204 17.4578 11.902 17.2998 12.2998 17.2998C12.6976 17.2998 13.0792 17.4578 13.3605 17.7391C13.6418 18.0204 13.7998 18.402 13.7998 18.7998C13.7998 19.1976 13.6418 19.5792 13.3605 19.8605C13.0792 20.1418 12.6976 20.2998 12.2998 20.2998C11.902 20.2998 11.5204 20.1418 11.2391 19.8605C10.9578 19.5792 10.7998 19.1976 10.7998 18.7998ZM10.7998 12.7998C10.7998 12.402 10.9578 12.0204 11.2391 11.7391C11.5204 11.4578 11.902 11.2998 12.2998 11.2998C12.6976 11.2998 13.0792 11.4578 13.3605 11.7391C13.6418 12.0204 13.7998 12.402 13.7998 12.7998C13.7998 13.1976 13.6418 13.5792 13.3605 13.8605C13.0792 14.1418 12.6976 14.2998 12.2998 14.2998C11.902 14.2998 11.5204 14.1418 11.2391 13.8605C10.9578 13.5792 10.7998 13.1976 10.7998 12.7998ZM10.7998 6.7998C10.7998 6.40198 10.9578 6.02045 11.2391 5.73914C11.5204 5.45784 11.902 5.2998 12.2998 5.2998C12.6976 5.2998 13.0792 5.45784 13.3605 5.73914C13.6418 6.02045 13.7998 6.40198 13.7998 6.7998C13.7998 7.19763 13.6418 7.57916 13.3605 7.86047C13.0792 8.14177 12.6976 8.2998 12.2998 8.2998C11.902 8.2998 11.5204 8.14177 11.2391 7.86047C10.9578 7.57916 10.7998 7.19763 10.7998 6.7998Z" fill="white"/>
</svg>
