<svg width="25" height="25" viewBox="0 0 25 25" fill="none" xmlns="http://www.w3.org/2000/svg">
<path d="M19.6975 7.77343C19.545 7.44164 19.3379 7.13859 19.085 6.87727L16.1737 3.9272C15.5846 3.33822 14.7919 3.00554 13.9644 3H8.125C7.2965 3.00101 6.50222 3.33496 5.91639 3.92861C5.33055 4.52225 5.00099 5.32712 5 6.16667V18.8333C5.00099 19.6729 5.33055 20.4777 5.91639 21.0714C6.50222 21.665 7.2965 21.999 8.125 22H16.875C17.7035 21.999 18.4978 21.665 19.0836 21.0714C19.6694 20.4777 19.999 19.6729 20 18.8333V9.1161C19.9969 8.65155 19.8937 8.1933 19.6975 7.77343ZM17.8663 7.43333H16.25C16.0842 7.43333 15.9253 7.36661 15.8081 7.24783C15.6908 7.12906 15.625 6.96797 15.625 6.8V5.1622L17.8663 7.43333ZM18.75 18.8333C18.75 19.3372 18.5525 19.8205 18.2008 20.1768C17.8492 20.5332 17.3723 20.7333 16.875 20.7333H8.125C7.62772 20.7333 7.15081 20.5332 6.79917 20.1768C6.44754 19.8205 6.25 19.3372 6.25 18.8333V6.16667C6.25 5.66276 6.44754 5.17948 6.79917 4.82316C7.15081 4.46684 7.62772 4.26667 8.125 4.26667H13.9644C14.1027 4.26791 14.2404 4.28491 14.375 4.31733V6.8C14.375 7.30391 14.5725 7.78718 14.9242 8.1435C15.2758 8.49982 15.7527 8.7 16.25 8.7H18.7C18.732 8.83636 18.7488 8.97594 18.75 9.1161V18.8333Z" fill="#6167DE"/>
<path d="M15.3 12.4H13.2V10.6C13.2 10.4409 13.1263 10.2883 12.995 10.1757C12.8637 10.0632 12.6857 10 12.5 10C12.3143 10 12.1363 10.0632 12.005 10.1757C11.8737 10.2883 11.8 10.4409 11.8 10.6V12.4H9.7C9.51435 12.4 9.3363 12.4632 9.20503 12.5757C9.07375 12.6883 9 12.8409 9 13C9 13.1591 9.07375 13.3117 9.20503 13.4243C9.3363 13.5368 9.51435 13.6 9.7 13.6H11.8V15.4C11.8 15.5591 11.8737 15.7117 12.005 15.8243C12.1363 15.9368 12.3143 16 12.5 16C12.6857 16 12.8637 15.9368 12.995 15.8243C13.1263 15.7117 13.2 15.5591 13.2 15.4V13.6H15.3C15.4857 13.6 15.6637 13.5368 15.795 13.4243C15.9263 13.3117 16 13.1591 16 13C16 12.8409 15.9263 12.6883 15.795 12.5757C15.6637 12.4632 15.4857 12.4 15.3 12.4Z" fill="#6167DE"/>
</svg>
