<svg width="25" height="25" viewBox="0 0 25 25" fill="none" xmlns="http://www.w3.org/2000/svg">
<path d="M21.3538 7.19151H21.3539C21.7947 7.19195 22.2173 7.36723 22.529 7.6789C22.8406 7.99056 23.0159 8.41315 23.0163 8.85391V8.85401V18.229V18.2291C23.0155 18.946 22.7303 19.6333 22.2234 20.1402C21.7165 20.6471 21.0292 20.9323 20.3123 20.9332H20.3122H4.68718H4.68706C3.97016 20.9323 3.28287 20.6471 2.77595 20.1402C2.26903 19.6333 1.98387 18.946 1.98301 18.2291L1.98301 18.229L1.98301 6.77067V6.77055C1.98387 6.05366 2.26903 5.36637 2.77595 4.85945C3.28287 4.35253 3.97016 4.06736 4.68706 4.06651L4.68718 4.06651L8.7808 4.06651L8.78093 4.06651V4.16651C9.20976 4.16596 9.63205 4.27159 10.0101 4.47399C10.3882 4.67638 10.7103 4.96923 10.9476 5.3264L21.3538 7.19151ZM21.3538 7.19151H12.311L11.0309 5.27106L21.3538 7.19151ZM4.68718 5.20817H8.78093M4.68718 5.20817C4.2729 5.20859 3.87571 5.37334 3.58278 5.66628C3.28984 5.95921 3.12509 6.3564 3.12467 6.77067M4.68718 5.20817V5.30817C4.68721 5.30817 4.68724 5.30817 4.68727 5.30817M4.68718 5.20817L4.68727 5.30817M8.78093 5.20817L4.68718 19.7915C4.2729 19.7911 3.87571 19.6263 3.58278 19.3334C3.28984 19.0405 3.12509 18.6433 3.12467 18.229V6.77067M8.78093 5.20817C9.03822 5.20782 9.29159 5.27119 9.51843 5.3926M8.78093 5.20817L9.51843 5.3926M3.12467 6.77067H3.22467L3.22467 6.77077L3.12467 6.77067ZM4.68727 19.6915C4.29949 19.6911 3.92769 19.5369 3.65349 19.2627C3.3793 18.9885 3.22509 18.6168 3.22467 18.229C3.22467 18.229 3.22467 18.2289 3.22467 18.2289L4.68727 19.6915ZM4.68727 19.6915H20.3121C20.6999 19.6911 21.0717 19.5369 21.3459 19.2627C21.6201 18.9885 21.7743 18.6167 21.7747 18.2289V8.85401C21.7747 8.74239 21.7303 8.63535 21.6514 8.55643C21.5725 8.47751 21.4655 8.43317 21.3538 8.43317H11.9789M4.68727 19.6915L11.9789 8.43317M4.68727 5.30817L8.78093 5.30817L8.78106 5.30817C9.02184 5.30785 9.25896 5.36714 9.47124 5.48077C9.68353 5.59439 9.86437 5.75882 9.99764 5.95935L9.99772 5.95947L11.4623 8.15686L11.4623 8.1569C11.519 8.2419 11.5959 8.31159 11.686 8.35979C11.7761 8.40798 11.8767 8.43319 11.9788 8.43317M4.68727 5.30817L11.9788 8.43317M11.9788 8.43317V8.33317L11.9789 8.43317M11.9788 8.43317H11.9789M9.51843 5.3926C9.74527 5.51402 9.93852 5.68972 10.0809 5.90401M9.51843 5.3926L10.0809 5.90401M10.0809 5.90401L11.5455 8.1014L10.0809 5.90401Z" fill="#6167DE" stroke="#6167DE" stroke-width="0.2"/>
<path d="M14.583 13.5413H13.0205V11.9788C13.0205 11.8407 12.9656 11.7082 12.868 11.6106C12.7703 11.5129 12.6378 11.458 12.4997 11.458C12.3615 11.458 12.2291 11.5129 12.1314 11.6106C12.0337 11.7082 11.9788 11.8407 11.9788 11.9788V13.5413H10.4163C10.2782 13.5413 10.1457 13.5962 10.0481 13.6939C9.95038 13.7916 9.89551 13.924 9.89551 14.0622C9.89551 14.2003 9.95038 14.3328 10.0481 14.4305C10.1457 14.5281 10.2782 14.583 10.4163 14.583H11.9788V16.1455C11.9788 16.2836 12.0337 16.4161 12.1314 16.5138C12.2291 16.6115 12.3615 16.6663 12.4997 16.6663C12.6378 16.6663 12.7703 16.6115 12.868 16.5138C12.9656 16.4161 13.0205 16.2836 13.0205 16.1455V14.583H14.583C14.7211 14.583 14.8536 14.5281 14.9513 14.4305C15.049 14.3328 15.1038 14.2003 15.1038 14.0622C15.1038 13.924 15.049 13.7916 14.9513 13.6939C14.8536 13.5962 14.7211 13.5413 14.583 13.5413Z" fill="#6167DE"/>
</svg>
