<svg width="375" height="275" viewBox="0 0 375 275" fill="none" xmlns="http://www.w3.org/2000/svg">
<path d="M93.75 68.75H265.625C278.057 68.75 289.98 72.3716 298.771 78.8182C307.561 85.2648 312.5 94.0082 312.5 103.125V183.333C312.5 192.45 307.561 201.194 298.771 207.64C289.98 214.087 278.057 217.708 265.625 217.708H93.75C81.318 217.708 69.3951 214.087 60.6044 207.64C51.8136 201.194 46.875 192.45 46.875 183.333V103.125C46.875 94.0082 51.8136 85.2648 60.6044 78.8182C69.3951 72.3716 81.318 68.75 93.75 68.75ZM93.75 80.2083C85.462 80.2083 77.5134 82.6228 71.6529 86.9205C65.7924 91.2182 62.5 97.0471 62.5 103.125H296.875C296.875 97.0471 293.583 91.2182 287.722 86.9205C281.862 82.6228 273.913 80.2083 265.625 80.2083H93.75ZM62.5 183.333C62.5 189.411 65.7924 195.24 71.6529 199.538C77.5134 203.836 85.462 206.25 93.75 206.25H265.625C273.913 206.25 281.862 203.836 287.722 199.538C293.583 195.24 296.875 189.411 296.875 183.333V137.5H62.5V183.333ZM93.75 171.875H140.625V183.333H93.75V171.875ZM171.875 171.875H203.125V183.333H171.875V171.875ZM62.5 114.583V126.042H296.875V114.583H62.5ZM46.875 34.375H78.125V45.8333H46.875C38.587 45.8333 30.6384 48.2478 24.7779 52.5455C18.9174 56.8432 15.625 62.6721 15.625 68.75V91.6667H0V68.75C0 59.6332 4.9386 50.8898 13.7294 44.4432C22.5201 37.9966 34.443 34.375 46.875 34.375ZM15.625 217.708C15.625 223.786 18.9174 229.615 24.7779 233.913C30.6384 238.211 38.587 240.625 46.875 240.625H78.125V252.083H46.875C34.443 252.083 22.5201 248.462 13.7294 242.015C4.9386 235.569 0 226.825 0 217.708L0 194.792H15.625V217.708ZM312.5 34.375C324.932 34.375 336.855 37.9966 345.646 44.4432C354.436 50.8898 359.375 59.6332 359.375 68.75V91.6667H343.75V68.75C343.75 62.6721 340.458 56.8432 334.597 52.5455C328.737 48.2478 320.788 45.8333 312.5 45.8333H281.25V34.375H312.5ZM359.375 217.708C359.375 226.825 354.436 235.569 345.646 242.015C336.855 248.462 324.932 252.083 312.5 252.083H281.25V240.625H312.5C320.788 240.625 328.737 238.211 334.597 233.913C340.458 229.615 343.75 223.786 343.75 217.708V194.792H359.375V217.708Z" fill="#6167DE"/>
</svg>
