<svg width="144" height="124" viewBox="0 0 144 124" fill="none" xmlns="http://www.w3.org/2000/svg">
<path fill-rule="evenodd" clip-rule="evenodd" d="M21.6699 18.0581H86.4389L101.126 33.1066V52.3688H108.53C115.452 52.3688 115.994 52.2484 117.981 50.8037C119.666 49.5397 120.509 49.3591 122.375 49.5999C123.94 49.8406 125.084 50.563 126.167 51.9474C127.431 53.5125 127.672 54.295 127.371 55.9804C127.19 57.2445 126.348 58.7494 125.204 59.7727C124.241 60.6756 122.736 61.3979 121.893 61.3979C121.05 61.3979 119.546 60.9766 118.583 60.495C117.619 60.0134 116.777 59.3513 116.777 58.9901C116.777 58.5688 106.724 58.3882 58.9903 58.3882L59.2913 52.6698L93.9029 52.3688V39.1261H80.0583V25.2814H28.8932V116.777H93.9029V103.534H58.9903L59.2913 97.8154L89.8699 97.6348C119.485 97.5144 120.449 97.4542 122.074 96.3105C122.977 95.5882 124.602 95.0465 125.685 95.1067C126.709 95.1067 128.153 95.3474 128.816 95.7086C129.478 96.0698 130.381 97.0329 130.862 97.996C131.524 99.1999 131.584 100.283 131.223 102.029C130.922 103.353 130.08 104.918 129.297 105.52C128.515 106.122 126.95 106.604 125.685 106.544C124.181 106.544 122.796 106.062 121.592 105.039C119.847 103.534 119.606 103.534 101.427 103.835L101.126 124H21.6699V18.0581ZM97.0932 64.4678C97.334 64.4678 98.4777 64.829 99.6214 65.3105C100.765 65.7921 101.969 66.7552 102.33 67.4173C102.691 68.0795 102.932 69.5843 102.932 70.728C102.932 72.2931 102.45 73.3164 101.006 74.761C99.2 76.4465 98.7787 76.627 96.6117 76.2659C95.2874 76.0251 93.6621 75.3028 93 74.6406C91.8563 73.4969 90.9534 73.4367 58.9903 73.4367V67.4173H75.4835C90.7728 67.4173 92.0369 67.3571 93.0602 66.2736C93.7224 65.6717 94.7456 65.0096 95.4078 64.829C96.0699 64.7086 96.7922 64.528 97.0932 64.4678ZM139.049 64.8892C139.891 65.0096 141.155 65.7319 141.938 66.4542C142.66 67.1164 143.443 68.6814 143.623 69.8251C143.804 71.33 143.563 72.4736 142.66 73.9183C141.757 75.363 140.854 75.9649 139.229 76.2057C137.664 76.4465 136.28 76.2659 135.016 75.6037C133.932 75.062 133.029 74.3999 133.029 74.0387C133.029 73.6775 131.163 73.4367 124.301 73.4367L115.573 88.4853H58.9903L59.2913 82.7668L111.901 82.1649L113.647 79.4562C114.55 77.9513 116.175 75.2426 117.138 73.4367C118.161 71.6309 119.365 69.5241 119.847 68.7416C120.629 67.4775 121.111 67.4173 126.709 67.4173C131.946 67.4775 132.849 67.2969 133.812 66.2736C134.414 65.6115 135.497 64.9494 136.219 64.829C136.942 64.7086 138.206 64.7086 139.049 64.8892Z" fill="url(#paint0_linear_1004_516)"/>
<path fill-rule="evenodd" clip-rule="evenodd" d="M0 0H79.4563V13.8447H75.8447L72.233 13.8442V7.2233H7.2233V98.4175H11.7379H17.4563V105.942H0V0Z" fill="url(#paint1_linear_1004_516)"/>
<defs>
<linearGradient id="paint0_linear_1004_516" x1="7.23389" y1="69.7474" x2="157.114" y2="69.7474" gradientUnits="userSpaceOnUse">
<stop stop-color="#EAAA8D"/>
<stop offset="1" stop-color="#68D9A3"/>
</linearGradient>
<linearGradient id="paint1_linear_1004_516" x1="-9.4012" y1="51.6893" x2="88.2054" y2="51.6893" gradientUnits="userSpaceOnUse">
<stop stop-color="#EAAA8D"/>
<stop offset="1" stop-color="#68D9A3"/>
</linearGradient>
</defs>
</svg>
