<svg width="28" height="18" viewBox="0 0 28 18" fill="none" xmlns="http://www.w3.org/2000/svg">
<path d="M9.98808 8.95795C9.49492 8.5494 8.92761 8.22628 8.30792 8.00944C9.06051 7.4666 9.55433 6.5982 9.55433 5.62256C9.55433 3.96931 8.16013 2.63571 6.44085 2.63571C4.72157 2.63571 3.32737 3.96931 3.32737 5.62256C3.32737 6.59812 3.81618 7.46669 4.57351 8.00962C2.49619 8.73855 1.0125 10.6516 1.0125 12.896V13.2319C1.0125 13.254 1.02347 13.2714 1.03454 13.282C1.04573 13.2927 1.0629 13.3022 1.08374 13.3022H7.5202C7.48729 13.5666 7.46864 13.8394 7.46864 14.1124V14.4585C7.46864 15.9845 8.75666 17.2163 10.3432 17.2163H18.5727C20.1592 17.2163 21.4472 15.9845 21.4472 14.4585V14.1124C21.4472 13.8394 21.4286 13.5666 21.3957 13.3022H27.8746C27.8954 13.3022 27.9126 13.2927 27.9238 13.282C27.9349 13.2714 27.9458 13.254 27.9458 13.2319L27.9458 12.896L27.9458 12.8957C27.9353 10.6465 26.4566 8.7333 24.3792 8.00441C25.1318 7.46159 25.6257 6.59315 25.6257 5.61747C25.6257 3.96422 24.2315 2.63062 22.5122 2.63062C20.7929 2.63062 19.3987 3.96422 19.3987 5.61747C19.3987 6.59307 19.8876 7.46167 20.6449 8.0046C20.015 8.22615 19.4376 8.55439 18.9435 8.9728C18.2571 8.41915 17.4566 7.98995 16.5828 7.72419C17.6629 7.05337 18.3837 5.88194 18.3837 4.55369C18.3837 2.46781 16.6232 0.783008 14.4526 0.783008C12.282 0.783008 10.5215 2.47294 10.5215 4.55369C10.5215 5.88203 11.2374 7.05369 12.3226 7.72452C11.4591 7.98994 10.6689 8.41407 9.98808 8.95795ZM20.3482 5.61238C20.3482 4.4713 21.3166 3.53991 22.5122 3.53991C23.7077 3.53991 24.6762 4.4713 24.6762 5.61238C24.6762 6.73825 23.7288 7.65966 22.5541 7.68485H22.4701C21.2905 7.6647 20.3482 6.74356 20.3482 5.61238ZM11.4604 4.55369C11.4604 2.97997 12.7952 1.69738 14.442 1.69738C16.0888 1.69738 17.4236 2.97997 17.4236 4.55369C17.4236 6.07201 16.1782 7.31906 14.6158 7.40491H14.2682C12.7058 7.31906 11.4604 6.07201 11.4604 4.55369ZM4.26093 5.61238C4.26093 4.47129 5.22938 3.53991 6.42492 3.53991C7.62046 3.53991 8.58891 4.47129 8.58891 5.61238C8.58891 6.73825 7.64154 7.65966 6.46687 7.68485H6.38287C5.20844 7.6647 4.26093 6.74348 4.26093 5.61238ZM9.27662 9.58728C8.53415 10.3708 7.97981 11.3277 7.68755 12.3828H1.9788C2.24101 10.2676 4.11698 8.61431 6.39318 8.59922H6.45675C7.52939 8.60421 8.51072 8.97807 9.27662 9.58728ZM20.4871 14.4585C20.4871 15.4724 19.6248 16.302 18.562 16.302H10.3326C9.26978 16.302 8.40751 15.4724 8.40751 14.4585V14.1124C8.40751 10.9815 11.0159 8.41676 14.2654 8.32443C14.3251 8.32946 14.3895 8.32946 14.4462 8.32946H14.4473H14.4484C14.5052 8.32946 14.5695 8.32946 14.6293 8.32443C17.8787 8.41676 20.4871 10.9815 20.4871 14.1124V14.4585ZM26.9583 12.3828H21.207C20.915 11.3329 20.3707 10.3905 19.6335 9.60743C20.4047 8.98358 21.3967 8.60918 22.4805 8.59922H22.5439C24.8201 8.61431 26.6961 10.2676 26.9583 12.3828Z" fill="#676D75" stroke="#676D75" stroke-width="0.1"/>
</svg>
