<svg width="23" height="19" viewBox="0 0 23 19" fill="none" xmlns="http://www.w3.org/2000/svg">
<path d="M20.2302 16.3627L20.2303 16.3624L22.5002 9.10573L22.5003 9.10534C22.7179 8.39947 22.5903 7.6506 22.1502 7.05145C21.71 6.45207 21.0301 6.10674 20.2872 6.10674H19.8489V4.75947C19.8489 3.48534 18.8138 2.45049 17.5349 2.45049H11.0755C10.7314 2.45049 10.4011 2.31382 10.1555 2.07307C10.1554 2.073 10.1554 2.07292 10.1553 2.07284L9.14034 1.06298C8.70511 0.627756 8.12613 0.38877 7.51064 0.38877H2.46299C1.18886 0.38877 0.154002 1.42393 0.154002 2.70283V15.5845C0.138446 16.0986 0.292335 16.6075 0.605137 17.0317C1.05034 17.6359 1.73516 17.9864 2.48838 17.9864H18.0224C19.0363 17.9864 19.9226 17.3332 20.2302 16.3627ZM1.15635 2.80283H1.16142V2.70283C1.16142 1.98595 1.74658 1.40127 2.45791 1.40127H7.51064C7.85402 1.40127 8.17964 1.53745 8.43095 1.77901C8.43115 1.7792 8.43134 1.77939 8.43154 1.77958L9.44579 2.78878C9.44582 2.7888 9.44585 2.78883 9.44587 2.78886C9.88109 3.22403 10.46 3.46299 11.0755 3.46299H17.5399C18.2568 3.46299 18.8415 4.04814 18.8415 4.75947V6.10674H4.72275C3.70895 6.10674 2.82262 6.75984 2.51497 7.7252L2.51483 7.72565L1.15635 12.0586V2.80283ZM21.5274 8.80693L21.5273 8.80735L19.2574 16.064L19.2573 16.0642C19.0877 16.6109 18.5885 16.9739 18.0173 16.9739H2.4833C2.05876 16.9739 1.6719 16.7763 1.4161 16.4356C1.16534 16.0898 1.09051 15.6608 1.21777 15.2554L1.2178 15.2553L3.47757 8.02916L3.47763 8.02896C3.6473 7.48225 4.14649 7.11924 4.71767 7.11924H20.2821C20.7025 7.11924 21.0837 7.31245 21.3288 7.64708L21.3295 7.64799C21.5844 7.98783 21.6547 8.40617 21.5274 8.80693Z" fill="#676D75" stroke="#676D75" stroke-width="0.2"/>
</svg>
