<svg width="25" height="31" viewBox="0 0 25 31" fill="none" xmlns="http://www.w3.org/2000/svg">
<path d="M15.4163 0.916504H3.74967C2.97613 0.916504 2.23426 1.22379 1.68728 1.77078C1.1403 2.31776 0.833008 3.05962 0.833008 3.83317V27.1665C0.833008 27.9401 1.1403 28.6819 1.68728 29.2289C2.23426 29.7759 2.97613 30.0832 3.74967 30.0832H21.2497C22.0232 30.0832 22.7651 29.7759 23.3121 29.2289C23.8591 28.6819 24.1663 27.9401 24.1663 27.1665V9.6665L15.4163 0.916504ZM8.85092 21.6103C8.4003 22.0332 7.7353 22.2228 6.96092 22.2228C6.81078 22.2244 6.66069 22.2156 6.51176 22.1965V24.2761H5.20801V18.5361C5.79638 18.4483 6.39089 18.4083 6.98572 18.4165C7.79801 18.4165 8.37551 18.5711 8.76488 18.8817C9.1353 19.1763 9.38613 19.659 9.38613 20.2278C9.38467 20.7994 9.19509 21.2821 8.85092 21.6103ZM14.4028 23.5863C13.7903 24.0953 12.8584 24.3373 11.7195 24.3373C11.037 24.3373 10.5543 24.2936 10.2261 24.2498V18.5375C10.8147 18.4516 11.409 18.4112 12.0038 18.4165C13.1078 18.4165 13.8253 18.6148 14.3853 19.0378C14.9905 19.4869 15.3697 20.203 15.3697 21.2311C15.3697 22.3438 14.9628 23.1123 14.4028 23.5863ZM19.7913 19.5394H17.5572V20.868H19.6455V21.9384H17.5572V24.2775H16.2359V18.4603H19.7913V19.5394ZM15.4163 11.1248H13.958V3.83317L21.2497 11.1248H15.4163Z" fill="#F33F35"/>
</svg>
