<svg width="24" height="24" viewBox="0 0 24 24" fill="none" xmlns="http://www.w3.org/2000/svg">
<path d="M22.1212 14.1481L22.3703 14.6302L22.1212 14.1492V14.1481ZM21.2328 14.3139L21.1787 13.7755L21.1624 13.7766L21.144 13.7798L21.2328 14.3139ZM21.2328 14.3139L21.287 14.8534L21.3054 14.8512L21.3228 14.848L21.2328 14.3139ZM16.8562 20.2527L17.1996 19.8335L17.1942 19.8302L16.8562 20.2527ZM16.8562 20.2527L16.5127 20.672L16.5182 20.6763L16.8562 20.2527ZM9.72675 22.2461L10.2077 21.998L9.72567 22.2471L9.72675 22.2461ZM6.89383 20.2527L6.55042 19.8346L6.54283 19.8411L6.53417 19.8486L6.89383 20.2527ZM6.89383 20.2527L7.23725 20.6731L7.24592 20.6655L7.2535 20.659L6.89383 20.2527ZM1.11858 13.5848L0.61375 13.7841L1.1175 13.5848H1.11858ZM1.11858 10.415L0.61375 10.2156L1.1175 10.415H1.11858ZM1.62775 9.85164L1.37967 9.36956L1.62883 9.85056L1.62775 9.85164ZM2.51608 9.68589V9.14423H2.49008L2.463 9.14639L2.51608 9.68589ZM2.51608 9.68589V10.2276H2.54317L2.57025 10.2243L2.51608 9.68589ZM9.24142 4.21723L8.80917 3.88898L9.24033 4.21723H9.24142ZM14.7263 2.58681C14.7101 2.39039 14.6873 2.19456 14.6581 1.99964C14.6333 1.82718 14.5814 1.65972 14.5042 1.50348L13.5412 2.00073C13.552 2.02239 13.5704 2.06573 13.5888 2.17839C13.6094 2.29756 13.6246 2.45248 13.6495 2.69406L14.7274 2.58573L14.7263 2.58681ZM14.9387 3.89006C14.9257 3.87381 14.8867 3.80773 14.8444 3.57589C14.794 3.24765 14.7561 2.91776 14.7285 2.58681L13.6495 2.69406C13.6928 3.12848 13.7286 3.48814 13.7784 3.76764C13.8272 4.04064 13.903 4.31906 14.0774 4.54764L14.9387 3.89006ZM15.4413 4.09806C15.3466 4.1108 15.2503 4.09827 15.162 4.06174C15.0737 4.02521 14.9967 3.96598 14.9387 3.89006L14.0763 4.54656C14.2503 4.77469 14.4816 4.9527 14.7466 5.06249C15.0117 5.17228 15.3011 5.20994 15.5854 5.17164L15.4413 4.09806ZM16.5117 3.32564C16.1596 3.61489 15.9191 3.81098 15.7295 3.94206C15.5356 4.07639 15.4608 4.09481 15.4413 4.09806L15.5854 5.17164C15.8692 5.13373 16.1195 4.99073 16.3481 4.83148C16.581 4.66898 16.8594 4.44148 17.1985 4.16414L16.5117 3.32564ZM17.4347 2.71789C17.2613 2.77314 17.1151 2.86089 16.9764 2.95948C16.8421 3.05481 16.6893 3.18048 16.5117 3.32564L17.1985 4.16414C17.3859 4.01031 17.5072 3.91173 17.6047 3.84239C17.6532 3.80339 17.7072 3.77197 17.7651 3.74923L17.4347 2.71789ZM18.5754 2.77423C18.2145 2.61803 17.8092 2.59802 17.4347 2.71789L17.7651 3.74923C17.8897 3.70977 18.0244 3.71669 18.1442 3.76873L18.5754 2.77423ZM19.4334 3.47189C19.2709 3.30939 19.1312 3.16856 19.0077 3.06023C18.8795 2.94273 18.7337 2.84621 18.5754 2.77423L18.1442 3.76873C18.167 3.77848 18.2082 3.80123 18.2948 3.87706C18.3847 3.95506 18.4952 4.06556 18.6675 4.23781L19.4334 3.47189ZM20.4008 4.43931L19.4334 3.47189L18.6675 4.23781L19.6349 5.20523L20.4008 4.43931ZM21.0985 5.29731C21.0261 5.13902 20.9293 4.99314 20.8114 4.86506C20.7031 4.74156 20.5623 4.60181 20.4008 4.43931L19.6349 5.20523C19.8072 5.37748 19.9166 5.48798 19.9967 5.57789C20.0726 5.66456 20.0942 5.70573 20.104 5.72848L21.0985 5.29731ZM21.1548 6.43806C21.2747 6.06352 21.2547 5.65822 21.0985 5.29731L20.104 5.72848C20.1557 5.84851 20.1622 5.98317 20.1224 6.10764L21.1548 6.43806ZM20.5471 7.36106C20.6922 7.18339 20.8179 7.03064 20.9132 6.89631C21.0107 6.75764 21.0996 6.61139 21.1548 6.43806L20.1224 6.10764C20.1 6.16544 20.069 6.2195 20.0303 6.26798C19.9271 6.40655 19.8198 6.54203 19.7086 6.67423L20.5471 7.36106ZM19.7747 8.43139C19.7779 8.41189 19.7963 8.33714 19.9307 8.14323C20.0617 7.95364 20.2578 7.71314 20.5471 7.36106L19.7086 6.67423C19.4312 7.01331 19.2027 7.29173 19.0412 7.52464C18.882 7.75214 18.739 8.00348 18.7011 8.28731L19.7747 8.43139ZM19.9827 8.93406C19.9067 8.87606 19.8475 8.79901 19.811 8.71073C19.7745 8.62245 19.7619 8.52608 19.7747 8.43139L18.7011 8.28731C18.663 8.57147 18.7007 8.86065 18.8105 9.1255C18.9203 9.39035 19.0982 9.62144 19.3262 9.79531L19.9827 8.93406ZM21.2859 9.14531C20.832 9.09981 20.5243 9.06948 20.2968 9.02831C20.065 8.98606 19.9989 8.94706 19.9827 8.93406L19.3262 9.79531C19.5537 9.96864 19.8321 10.0445 20.1062 10.0943C20.3846 10.1441 20.7432 10.181 21.1787 10.2243L21.2859 9.14531ZM22.3692 9.36848C22.213 9.29135 22.0455 9.23944 21.8731 9.21464C21.7106 9.18756 21.5134 9.16806 21.2859 9.14531L21.1776 10.2232C21.4202 10.2481 21.5752 10.2633 21.6943 10.2839C21.7556 10.2908 21.8155 10.3069 21.872 10.3316L22.3692 9.36739V9.36848ZM23.1352 10.2146C22.9905 9.84921 22.7185 9.54863 22.3692 9.36848L21.872 10.3316C21.9885 10.3915 22.0793 10.4915 22.1277 10.6132L23.1352 10.2146ZM23.2489 11.3141C23.2489 11.0856 23.2489 10.8873 23.2381 10.7226C23.2308 10.5489 23.196 10.3774 23.1352 10.2146L22.1277 10.6132C22.1363 10.636 22.1493 10.6815 22.1569 10.7952C22.1654 10.9684 22.1682 11.1418 22.1656 11.3152H23.2489V11.3141ZM23.2489 12.6835V11.3141H22.1656V12.6835H23.2489ZM23.1352 13.782C23.2023 13.613 23.2272 13.444 23.2381 13.2739C23.2489 13.1103 23.2489 12.9121 23.2489 12.6835H22.1656C22.1656 12.9261 22.1656 13.0821 22.1569 13.2024C22.1564 13.2642 22.1465 13.3255 22.1277 13.3844L23.1352 13.782ZM22.3692 14.6291C22.7186 14.4487 22.9908 14.1477 23.1352 13.782L22.1277 13.3844C22.0793 13.5061 21.9885 13.6062 21.872 13.6661L22.3703 14.6302L22.3692 14.6291ZM21.2859 14.8523C21.5134 14.8296 21.7117 14.809 21.8731 14.7819C22.041 14.7548 22.2067 14.7126 22.3682 14.6302L21.872 13.6661C21.8155 13.6908 21.7556 13.7069 21.6943 13.7137C21.5752 13.7343 21.4202 13.7495 21.1787 13.7744L21.287 14.8534L21.2859 14.8523ZM19.9837 15.0636C20 15.0506 20.0661 15.0105 20.2979 14.9693C20.5254 14.9281 20.8331 14.8967 21.2859 14.8523L21.1787 13.7744C20.7442 13.8177 20.3846 13.8524 20.1051 13.9033C19.8321 13.9521 19.5547 14.0279 19.3262 14.2012L19.9837 15.0636ZM19.7747 15.5662C19.762 15.4714 19.7747 15.375 19.8115 15.2867C19.8482 15.1984 19.9076 15.1214 19.9837 15.0636L19.3262 14.2012C19.098 14.3752 18.92 14.6065 18.8102 14.8715C18.7004 15.1366 18.6628 15.426 18.7011 15.7103L19.7747 15.5662ZM20.5471 16.6366C20.3327 16.383 20.1271 16.1221 19.9307 15.8544C19.7963 15.6616 19.7779 15.5857 19.7747 15.5662L18.7022 15.7114C18.7401 15.9952 18.8831 16.2444 19.0412 16.473C19.2037 16.7048 19.4312 16.9843 19.7086 17.3223L20.5471 16.6366ZM21.1548 17.5596C21.099 17.3947 21.0174 17.2397 20.9132 17.1002C20.7961 16.9419 20.6739 16.7873 20.5471 16.6366L19.7086 17.3223C19.8624 17.5108 19.961 17.6311 20.0303 17.7296C20.0688 17.7778 20.0999 17.8315 20.1224 17.8889L21.1548 17.5596ZM21.0985 18.7003C21.2547 18.3394 21.2747 17.9341 21.1548 17.5596L20.1224 17.8889C20.1625 18.0137 20.1559 18.1488 20.104 18.2691L21.0985 18.7003ZM20.4019 19.5572C20.5633 19.3958 20.7031 19.2561 20.8114 19.1326C20.9241 19.0036 21.0259 18.8682 21.0985 18.7003L20.104 18.2691C20.0756 18.3242 20.0391 18.3746 19.9957 18.4186C19.8792 18.5464 19.7589 18.6707 19.6349 18.7913L20.4019 19.5572ZM19.4334 20.5257L20.4019 19.5572L19.6349 18.7913L18.6675 19.7598L19.4334 20.5257ZM18.5754 21.2223C18.7422 21.1497 18.8787 21.049 19.0077 20.9363C19.1312 20.828 19.2709 20.6871 19.4334 20.5246L18.6675 19.7598C18.4952 19.9321 18.3847 20.0415 18.2948 20.1206C18.2504 20.1641 18.1996 20.2006 18.1442 20.2289L18.5754 21.2223ZM17.4347 21.2797C17.8093 21.3993 18.2146 21.3789 18.5754 21.2223L18.1442 20.2289C18.0242 20.2806 17.8896 20.2871 17.7651 20.2473L17.4347 21.2797ZM16.5117 20.6709C16.6893 20.8161 16.8421 20.9417 16.9764 21.0371C17.1151 21.1356 17.2613 21.2245 17.4347 21.2797L17.7651 20.2473C17.7073 20.2249 17.6532 20.1939 17.6047 20.1552C17.4662 20.0517 17.3307 19.944 17.1985 19.8324L16.5117 20.6709ZM15.4413 19.8996C15.4608 19.9017 15.5367 19.9212 15.7295 20.0556C15.9191 20.1866 16.1596 20.3827 16.5117 20.6709L17.1985 19.8324C16.8594 19.5561 16.581 19.3276 16.3481 19.1651C16.1206 19.0069 15.8692 18.8639 15.5854 18.826L15.4413 19.8996ZM14.9387 20.1076C14.9967 20.0316 15.0737 19.9724 15.162 19.9359C15.2503 19.8993 15.3466 19.8868 15.4413 19.8996L15.5854 18.826C15.3014 18.7878 15.0122 18.8253 14.7474 18.9349C14.4826 19.0445 14.2514 19.2222 14.0774 19.45L14.9387 20.1076ZM14.7274 21.4108C14.7729 20.9569 14.8032 20.6492 14.8444 20.4217C14.8867 20.1899 14.9257 20.1238 14.9387 20.1076L14.0774 19.45C13.9041 19.6775 13.8282 19.957 13.7784 20.23C13.7286 20.5084 13.6917 20.867 13.6484 21.3025L14.7274 21.4108ZM14.5042 22.4941C14.5877 22.3316 14.6288 22.1659 14.657 21.998C14.6852 21.8355 14.7047 21.6383 14.7274 21.4108L13.6484 21.3025C13.6334 21.4753 13.6142 21.6476 13.5888 21.8192C13.582 21.8805 13.5659 21.9404 13.5412 21.9969L14.5053 22.4941H14.5042ZM13.6582 23.2601C14.0235 23.1154 14.3241 22.8433 14.5042 22.4941L13.5412 21.9969C13.4813 22.1134 13.3812 22.2042 13.2595 22.2526L13.6582 23.2601ZM12.5586 23.3738C12.7872 23.3738 12.9854 23.3738 13.1501 23.363C13.3191 23.3521 13.4892 23.3272 13.6582 23.2601L13.2595 22.2526C13.2006 22.2714 13.1393 22.2813 13.0775 22.2818C12.9583 22.2905 12.8012 22.2905 12.5575 22.2905L12.5586 23.3738ZM11.1892 23.3738H12.5586L12.5575 22.2905H11.1892V23.3738ZM10.0897 23.2601C10.2597 23.3272 10.4287 23.3521 10.5988 23.363C10.7624 23.3738 10.9607 23.3738 11.1892 23.3738V22.2905C10.9466 22.2905 10.7906 22.2905 10.6703 22.2818C10.6085 22.2813 10.5472 22.2714 10.4883 22.2526L10.0897 23.2601ZM9.24358 22.4941C9.42373 22.8433 9.72431 23.1154 10.0897 23.2601L10.4883 22.2526C10.3666 22.2042 10.2666 22.1134 10.2067 21.9969L9.2425 22.4941H9.24358ZM9.02042 21.4108C9.04317 21.6383 9.06375 21.8366 9.08975 21.998C9.11792 22.1659 9.16017 22.3316 9.24358 22.4941L10.2067 21.9969C10.182 21.9404 10.1659 21.8805 10.159 21.8192C10.1336 21.648 10.1134 21.476 10.0983 21.3036L9.02042 21.4108ZM8.80917 20.1076C8.82217 20.1238 8.86117 20.1899 8.90342 20.4217C8.94458 20.6492 8.97492 20.958 9.02042 21.4108L10.0983 21.3036C10.055 20.8691 10.0192 20.5095 9.96942 20.23C9.92067 19.957 9.84483 19.6786 9.67042 19.45L8.80917 20.1076ZM8.3065 19.8996C8.40119 19.8868 8.49756 19.8993 8.58584 19.9359C8.67412 19.9724 8.75117 20.0316 8.80917 20.1076L9.67042 19.45C9.49654 19.222 9.26545 19.0452 9.0006 18.9354C8.73575 18.8256 8.44657 18.7879 8.16242 18.826L8.3065 19.8996ZM7.23617 20.672C7.58825 20.3827 7.82875 20.1866 8.01833 20.0556C8.21225 19.9212 8.287 19.9017 8.3065 19.8996L8.16242 18.826C7.87858 18.8639 7.62833 19.0069 7.39975 19.1661C7.16683 19.3276 6.88842 19.5561 6.54933 19.8335L7.23617 20.672ZM6.31317 21.2797C6.4865 21.2245 6.63275 21.1367 6.77142 21.0381C6.90575 20.9428 7.0585 20.8171 7.23617 20.672L6.54933 19.8335C6.41714 19.9447 6.28166 20.052 6.14308 20.1552C6.09463 20.1939 6.04056 20.2249 5.98275 20.2473L6.31317 21.2797ZM5.17242 21.2245C5.53332 21.3807 5.93863 21.3996 6.31317 21.2797L5.98275 20.2473C5.85828 20.2871 5.72361 20.2806 5.60358 20.2289L5.17242 21.2245ZM4.31442 20.5257C4.47692 20.6882 4.61667 20.8291 4.74017 20.9374C4.868 21.049 5.00558 21.1519 5.17242 21.2245L5.60358 20.2289C5.54818 20.2006 5.4974 20.1641 5.453 20.1206C5.32524 20.004 5.20096 19.8837 5.08033 19.7598L4.31442 20.5257ZM3.347 19.5583L4.31442 20.5257L5.08033 19.7598L4.11292 18.7924L3.347 19.5583ZM2.64933 18.7003C2.72192 18.8671 2.82375 19.0036 2.93642 19.1326C3.04475 19.2561 3.18558 19.3958 3.347 19.5583L4.11292 18.7924C3.98864 18.6718 3.86798 18.5475 3.75108 18.4197C3.70756 18.3753 3.67103 18.3245 3.64275 18.2691L2.64933 18.7003ZM2.593 17.5596C2.47313 17.9341 2.49314 18.3394 2.64933 18.7003L3.64275 18.2691C3.59072 18.1492 3.58487 18.0146 3.62433 17.89L2.593 17.5596ZM3.20075 16.6366C3.05558 16.8142 2.92992 16.967 2.83458 17.1013C2.7305 17.2404 2.64898 17.3951 2.593 17.5596L3.62433 17.89C3.64708 17.8321 3.6785 17.7781 3.7175 17.7296C3.78683 17.6321 3.88542 17.5108 4.03925 17.3234L3.20075 16.6366ZM3.97317 15.5662C3.96992 15.5857 3.9515 15.6605 3.81717 15.8544C3.685 16.044 3.49 16.2845 3.20075 16.6366L4.03925 17.3234C4.31658 16.9843 4.54517 16.7059 4.70658 16.473C4.86583 16.2455 5.00883 15.9941 5.04675 15.7103L3.97317 15.5662ZM3.76517 15.0636C3.84109 15.1216 3.90032 15.1986 3.93685 15.2869C3.97338 15.3752 3.98591 15.4715 3.97317 15.5662L5.04675 15.7103C5.08485 15.4262 5.04709 15.137 4.93731 14.8721C4.82752 14.6073 4.64963 14.3762 4.42167 14.2023L3.76517 15.0636ZM2.46192 14.8534C2.91583 14.8978 3.2235 14.9281 3.451 14.9693C3.68283 15.0116 3.74892 15.0506 3.76517 15.0636L4.42167 14.2012C4.19417 14.0279 3.91575 13.9521 3.64167 13.9033C3.36325 13.8535 3.00467 13.8166 2.56917 13.7733L2.46083 14.8523L2.46192 14.8534ZM1.37858 14.6291C1.54108 14.7126 1.70683 14.7537 1.87475 14.7819C2.03725 14.8101 2.23333 14.8306 2.46192 14.8534L2.57025 13.7744C2.39743 13.7594 2.2251 13.7391 2.0535 13.7137C1.99222 13.7068 1.93233 13.6908 1.87583 13.6661L1.37858 14.6302V14.6291ZM0.612667 13.782C0.757061 14.1477 1.02919 14.4487 1.37858 14.6291L1.87583 13.6661C1.75936 13.6062 1.66853 13.5061 1.62017 13.3844L0.612667 13.782ZM0.5 12.6856C0.5 12.9142 0.5 13.1125 0.510833 13.2771C0.517844 13.4506 0.55259 13.6217 0.61375 13.7841L1.62125 13.3866C1.60242 13.3277 1.59256 13.2663 1.592 13.2046C1.58395 13.0314 1.58106 12.8579 1.58333 12.6846H0.5V12.6856ZM0.5 11.3163V12.6856H1.58333V11.3163H0.5ZM0.61375 10.2167C0.552827 10.38 0.518093 10.5518 0.510833 10.7259C0.5 10.8895 0.5 11.0877 0.5 11.3163H1.58333C1.58333 11.0736 1.58333 10.9176 1.592 10.7974C1.59252 10.7356 1.60238 10.6742 1.62125 10.6154L0.61375 10.2167ZM1.37967 9.37064C1.03046 9.55079 0.758365 9.85137 0.61375 10.2167L1.62125 10.6154C1.66962 10.4937 1.76044 10.3936 1.87692 10.3337L1.37967 9.36956V9.37064ZM2.463 9.14639C2.2355 9.16914 2.03725 9.19081 1.87583 9.21681C1.70337 9.2416 1.53591 9.29352 1.37967 9.37064L1.87692 10.3337C1.89858 10.3229 1.94192 10.3045 2.05458 10.2861C2.17375 10.2655 2.32867 10.2503 2.57025 10.2254L2.46192 9.14748L2.463 9.14639ZM3.76625 8.93623C3.75 8.94923 3.68392 8.98823 3.45208 9.03048C3.22458 9.07164 2.91692 9.10089 2.463 9.14639L2.57025 10.2254C3.00467 10.1821 3.36542 10.1463 3.64383 10.0965C3.91792 10.0477 4.19633 9.97189 4.42383 9.79748L3.76625 8.93623ZM3.97425 8.43356C3.98699 8.52825 3.97446 8.62462 3.93793 8.7129C3.9014 8.80118 3.84217 8.87823 3.76625 8.93623L4.42383 9.79748C4.6516 9.62348 4.82928 9.39233 4.93887 9.12749C5.04846 8.86265 5.08605 8.57245 5.04783 8.28839L3.97533 8.43356H3.97425ZM3.20183 7.36214C3.49108 7.71531 3.68717 7.95581 3.81933 8.14539C3.95367 8.33931 3.971 8.41406 3.97425 8.43356L5.04783 8.28839C5.00992 8.00456 4.86692 7.75539 4.70767 7.52681C4.54625 7.29389 4.31767 7.01548 4.04033 6.67639L3.20183 7.36214ZM2.59408 6.43914C2.64825 6.61248 2.73708 6.75981 2.83567 6.89848C2.931 7.03173 3.05667 7.18556 3.20183 7.36214L4.04033 6.67639C3.92907 6.54384 3.82177 6.408 3.71858 6.26906C3.67967 6.22098 3.64826 6.16729 3.62542 6.10981L2.59408 6.43914ZM2.65042 5.29948C2.49449 5.66007 2.47448 6.06493 2.59408 6.43914L3.62542 6.10981C3.58596 5.98521 3.59288 5.85054 3.64492 5.73064L2.65042 5.29948ZM3.34808 4.44148C3.18558 4.60289 3.04475 4.74264 2.93642 4.86723C2.81893 4.99536 2.72241 5.14124 2.65042 5.29948L3.64492 5.73064C3.67327 5.67563 3.7098 5.62414 3.75325 5.58006C3.86931 5.45184 3.98962 5.32755 4.114 5.20739L3.34808 4.44148ZM4.3155 3.47298L3.34808 4.44148L4.114 5.20739L5.08142 4.23889L4.3155 3.47298ZM5.1735 2.77639C5.01531 2.84847 4.86944 2.94498 4.74125 3.06239C4.61775 3.17073 4.47692 3.31048 4.3155 3.47298L5.08142 4.23889C5.25367 4.06773 5.36417 3.95723 5.45408 3.87814C5.54075 3.80231 5.58192 3.78064 5.60467 3.76981L5.1735 2.77639ZM6.31425 2.71898C5.93958 2.59945 5.53427 2.61985 5.1735 2.77639L5.60467 3.76981C5.72456 3.71778 5.85923 3.71194 5.98383 3.75139L6.31425 2.71898ZM7.23725 3.32781C7.05958 3.18264 6.90683 3.05698 6.7725 2.96164C6.63348 2.85714 6.47882 2.77524 6.31425 2.71898L5.98383 3.75139C6.04162 3.77381 6.09568 3.80485 6.14417 3.84348C6.24167 3.91389 6.363 4.01248 6.5515 4.16631L7.23725 3.32781ZM8.30758 4.10023C8.28808 4.09698 8.21333 4.07856 8.01942 3.94423C7.75167 3.74745 7.49079 3.54258 7.23725 3.32781L6.5515 4.16631C6.8895 4.44364 7.169 4.67223 7.40083 4.83364C7.62833 4.99181 7.87967 5.13481 8.1635 5.17381L8.30758 4.10023ZM8.81025 3.89114C8.75237 3.96726 8.67538 4.0267 8.58709 4.06342C8.4988 4.10015 8.40237 4.11285 8.30758 4.10023L8.1635 5.17381C8.44773 5.21223 8.73707 5.17365 9.00212 5.06406C9.26717 4.95446 9.49849 4.77666 9.67258 4.54873L8.81025 3.89114ZM9.0215 2.58898C8.976 3.04181 8.94567 3.35056 8.9045 3.57698C8.86225 3.80881 8.82325 3.87489 8.81025 3.89114L9.67258 4.54873C9.84592 4.32123 9.92175 4.04281 9.9705 3.76873C10.0203 3.49031 10.0572 3.13173 10.1005 2.69623L9.0215 2.58898ZM9.24467 1.50564C9.16125 1.66814 9.119 1.83389 9.09083 2.00181C9.06375 2.16431 9.04425 2.36039 9.0215 2.58898L10.0994 2.69731C10.1144 2.52449 10.1347 2.35216 10.1601 2.18056C10.1669 2.11927 10.183 2.05937 10.2077 2.00289L9.24358 1.50673L9.24467 1.50564ZM10.0918 0.739726C9.72589 0.884389 9.42488 1.15584 9.24467 1.50564L10.2077 2.00289C10.2676 1.88642 10.3677 1.79559 10.4894 1.74723L10.0918 0.739726ZM11.1903 0.625977C10.9617 0.625977 10.7635 0.625977 10.5988 0.63681C10.4254 0.643821 10.2543 0.678567 10.0918 0.739726L10.4894 1.74723C10.5483 1.72836 10.6096 1.7185 10.6714 1.71798C10.7906 1.70931 10.9477 1.70931 11.1914 1.70931V0.625977H11.1903ZM12.5597 0.625977H11.1903V1.70931H12.5597V0.625977ZM13.6592 0.739726C13.496 0.678786 13.3242 0.644051 13.1501 0.63681C12.9865 0.625977 12.7882 0.625977 12.5597 0.625977V1.70931C12.8023 1.70931 12.9583 1.70931 13.0786 1.71798C13.1403 1.71885 13.2017 1.7287 13.2606 1.74723L13.6582 0.739726H13.6592ZM14.5053 1.50564C14.3249 1.15625 14.0239 0.884121 13.6582 0.739726L13.2606 1.74723C13.3823 1.79559 13.4824 1.88642 13.5422 2.00289L14.5053 1.50564ZM15.6667 11.9999C15.6667 13.0055 15.2672 13.9699 14.5561 14.681C13.845 15.3921 12.8806 15.7916 11.875 15.7916V16.8749C13.1679 16.8749 14.4079 16.3613 15.3221 15.447C16.2364 14.5328 16.75 13.2928 16.75 11.9999H15.6667ZM11.875 8.20823C12.8806 8.20823 13.845 8.6077 14.5561 9.31878C15.2672 10.0299 15.6667 10.9943 15.6667 11.9999H16.75C16.75 10.707 16.2364 9.46699 15.3221 8.55275C14.4079 7.63851 13.1679 7.12489 11.875 7.12489V8.20823ZM8.08333 11.9999C8.08333 10.9943 8.48281 10.0299 9.19389 9.31878C9.90496 8.6077 10.8694 8.20823 11.875 8.20823V7.12489C10.5821 7.12489 9.34209 7.63851 8.42785 8.55275C7.51361 9.46699 7 10.707 7 11.9999H8.08333ZM11.875 15.7916C10.8694 15.7916 9.90496 15.3921 9.19389 14.681C8.48281 13.9699 8.08333 13.0055 8.08333 11.9999H7C7 13.2928 7.51361 14.5328 8.42785 15.447C9.34209 16.3613 10.5821 16.8749 11.875 16.8749V15.7916Z" fill="#676D75"/>
</svg>
